<svg version="1.0" preserveAspectRatio="xMidYMid meet" viewBox="197.55 629.09997204 555.75 168.7499925" zoomAndPan="magnify" xmlns:xlink="http://www.w3.org/1999/xlink" xmlns="http://www.w3.org/2000/svg" style="max-height: 500px" width="555.75" height="168.7499925"><defs><g/><clipPath id="9347c0b607"><path clip-rule="nonzero" d="M 207.878906 739.433594 L 357.878906 739.433594 L 357.878906 783 L 207.878906 783 Z M 207.878906 739.433594"/></clipPath><clipPath id="4d78d32285"><path clip-rule="nonzero" d="M 207.878906 690.457031 L 357.878906 690.457031 L 357.878906 734 L 207.878906 734 Z M 207.878906 690.457031"/></clipPath><clipPath id="901189add4"><path clip-rule="nonzero" d="M 207.878906 641.480469 L 357.878906 641.480469 L 357.878906 685 L 207.878906 685 Z M 207.878906 641.480469"/></clipPath></defs><rect fill-opacity="1" height="1349.99994" y="-112.499995" fill="#ffffff" width="1350" x="-112.5"/><rect fill-opacity="1" height="1349.99994" y="-112.499995" fill="#ffffff" width="1350" x="-112.5"/><g fill-opacity="1" fill="#004aad"><g transform="translate(390.685654, 771.922234)"><g><path d="M 10.703125 -1.28125 C 10.890625 -1.28125 11.046875 -1.210938 11.171875 -1.078125 C 11.296875 -0.953125 11.359375 -0.800781 11.359375 -0.625 C 11.359375 -0.4375 11.296875 -0.285156 11.171875 -0.171875 C 11.046875 -0.0546875 10.890625 0 10.703125 0 L 2.703125 0 C 2.515625 0 2.359375 -0.0625 2.234375 -0.1875 C 2.109375 -0.3125 2.046875 -0.46875 2.046875 -0.65625 L 2.046875 -14.609375 C 2.046875 -14.796875 2.109375 -14.953125 2.234375 -15.078125 C 2.359375 -15.203125 2.515625 -15.265625 2.703125 -15.265625 L 10.703125 -15.265625 C 10.890625 -15.265625 11.046875 -15.203125 11.171875 -15.078125 C 11.296875 -14.953125 11.359375 -14.796875 11.359375 -14.609375 C 11.359375 -14.421875 11.296875 -14.265625 11.171875 -14.140625 C 11.046875 -14.023438 10.890625 -13.96875 10.703125 -13.96875 L 3.421875 -13.96875 L 3.421875 -8.5 L 9.71875 -8.5 C 9.90625 -8.5 10.0625 -8.4375 10.1875 -8.3125 C 10.3125 -8.1875 10.375 -8.03125 10.375 -7.84375 C 10.375 -7.65625 10.3125 -7.503906 10.1875 -7.390625 C 10.0625 -7.273438 9.90625 -7.21875 9.71875 -7.21875 L 3.421875 -7.21875 L 3.421875 -1.28125 Z M 10.703125 -1.28125"/></g></g></g><g fill-opacity="1" fill="#004aad"><g transform="translate(405.021148, 771.922234)"><g><path d="M 12.84375 -15.265625 C 13.03125 -15.265625 13.1875 -15.203125 13.3125 -15.078125 C 13.4375 -14.953125 13.5 -14.796875 13.5 -14.609375 L 13.5 -5.578125 C 13.5 -4.515625 13.242188 -3.539062 12.734375 -2.65625 C 12.222656 -1.769531 11.53125 -1.070312 10.65625 -0.5625 C 9.78125 -0.0507812 8.820312 0.203125 7.78125 0.203125 C 6.71875 0.203125 5.75 -0.0507812 4.875 -0.5625 C 4.007812 -1.070312 3.320312 -1.769531 2.8125 -2.65625 C 2.300781 -3.539062 2.046875 -4.515625 2.046875 -5.578125 L 2.046875 -14.609375 C 2.046875 -14.796875 2.109375 -14.953125 2.234375 -15.078125 C 2.359375 -15.203125 2.53125 -15.265625 2.75 -15.265625 C 2.925781 -15.265625 3.078125 -15.203125 3.203125 -15.078125 C 3.335938 -14.953125 3.40625 -14.796875 3.40625 -14.609375 L 3.40625 -5.578125 C 3.40625 -4.765625 3.597656 -4.015625 3.984375 -3.328125 C 4.378906 -2.648438 4.914062 -2.109375 5.59375 -1.703125 C 6.269531 -1.304688 7 -1.109375 7.78125 -1.109375 C 8.582031 -1.109375 9.316406 -1.304688 9.984375 -1.703125 C 10.660156 -2.109375 11.195312 -2.648438 11.59375 -3.328125 C 12 -4.015625 12.203125 -4.765625 12.203125 -5.578125 L 12.203125 -14.609375 C 12.203125 -14.796875 12.257812 -14.953125 12.375 -15.078125 C 12.5 -15.203125 12.65625 -15.265625 12.84375 -15.265625 Z M 12.84375 -15.265625"/></g></g></g><g fill-opacity="1" fill="#004aad"><g transform="translate(422.515473, 771.922234)"><g><path d="M 13.1875 -1.171875 C 13.40625 -1.023438 13.515625 -0.84375 13.515625 -0.625 C 13.515625 -0.550781 13.484375 -0.457031 13.421875 -0.34375 C 13.367188 -0.25 13.289062 -0.171875 13.1875 -0.109375 C 13.082031 -0.046875 12.972656 -0.015625 12.859375 -0.015625 C 12.710938 -0.015625 12.585938 -0.046875 12.484375 -0.109375 C 12.078125 -0.335938 11.75 -0.710938 11.5 -1.234375 C 11.257812 -1.765625 11.140625 -2.601562 11.140625 -3.75 C 11.140625 -4.769531 10.851562 -5.484375 10.28125 -5.890625 C 9.71875 -6.304688 9.046875 -6.515625 8.265625 -6.515625 L 3.421875 -6.515625 L 3.421875 -0.65625 C 3.421875 -0.46875 3.363281 -0.3125 3.25 -0.1875 C 3.132812 -0.0625 2.984375 0 2.796875 0 C 2.585938 0 2.410156 -0.0625 2.265625 -0.1875 C 2.117188 -0.3125 2.046875 -0.46875 2.046875 -0.65625 L 2.046875 -14.609375 C 2.046875 -14.796875 2.109375 -14.953125 2.234375 -15.078125 C 2.359375 -15.203125 2.515625 -15.265625 2.703125 -15.265625 L 8.59375 -15.265625 C 9.414062 -15.265625 10.15625 -15.082031 10.8125 -14.71875 C 11.46875 -14.363281 11.976562 -13.875 12.34375 -13.25 C 12.71875 -12.625 12.90625 -11.921875 12.90625 -11.140625 C 12.90625 -10.210938 12.660156 -9.394531 12.171875 -8.6875 C 11.679688 -7.976562 11.046875 -7.492188 10.265625 -7.234375 C 10.898438 -6.984375 11.421875 -6.5625 11.828125 -5.96875 C 12.242188 -5.382812 12.457031 -4.675781 12.46875 -3.84375 C 12.476562 -2.9375 12.535156 -2.300781 12.640625 -1.9375 C 12.753906 -1.570312 12.9375 -1.316406 13.1875 -1.171875 Z M 8.65625 -7.71875 C 9.164062 -7.757812 9.632812 -7.925781 10.0625 -8.21875 C 10.5 -8.507812 10.847656 -8.898438 11.109375 -9.390625 C 11.378906 -9.890625 11.515625 -10.457031 11.515625 -11.09375 C 11.515625 -11.925781 11.234375 -12.613281 10.671875 -13.15625 C 10.109375 -13.695312 9.378906 -13.96875 8.484375 -13.96875 L 3.421875 -13.96875 L 3.421875 -7.71875 Z M 8.65625 -7.71875"/></g></g></g><g fill-opacity="1" fill="#004aad"><g transform="translate(439.073044, 771.922234)"><g><path d="M 15.65625 -7.625 C 15.65625 -6.132812 15.34375 -4.789062 14.71875 -3.59375 C 14.09375 -2.40625 13.226562 -1.472656 12.125 -0.796875 C 11.019531 -0.117188 9.757812 0.21875 8.34375 0.21875 C 6.9375 0.21875 5.679688 -0.117188 4.578125 -0.796875 C 3.472656 -1.472656 2.609375 -2.40625 1.984375 -3.59375 C 1.359375 -4.789062 1.046875 -6.132812 1.046875 -7.625 C 1.046875 -9.132812 1.359375 -10.484375 1.984375 -11.671875 C 2.609375 -12.867188 3.472656 -13.800781 4.578125 -14.46875 C 5.679688 -15.132812 6.9375 -15.46875 8.34375 -15.46875 C 9.757812 -15.46875 11.019531 -15.132812 12.125 -14.46875 C 13.226562 -13.800781 14.09375 -12.867188 14.71875 -11.671875 C 15.34375 -10.484375 15.65625 -9.132812 15.65625 -7.625 Z M 14.25 -7.625 C 14.25 -8.894531 14 -10.023438 13.5 -11.015625 C 13 -12.015625 12.300781 -12.789062 11.40625 -13.34375 C 10.507812 -13.894531 9.488281 -14.171875 8.34375 -14.171875 C 7.195312 -14.171875 6.175781 -13.894531 5.28125 -13.34375 C 4.382812 -12.789062 3.6875 -12.015625 3.1875 -11.015625 C 2.6875 -10.023438 2.4375 -8.894531 2.4375 -7.625 C 2.4375 -6.363281 2.6875 -5.234375 3.1875 -4.234375 C 3.6875 -3.242188 4.382812 -2.472656 5.28125 -1.921875 C 6.175781 -1.367188 7.195312 -1.09375 8.34375 -1.09375 C 9.488281 -1.09375 10.507812 -1.367188 11.40625 -1.921875 C 12.300781 -2.472656 13 -3.242188 13.5 -4.234375 C 14 -5.234375 14.25 -6.363281 14.25 -7.625 Z M 14.25 -7.625"/></g></g></g><g fill-opacity="1" fill="#004aad"><g transform="translate(457.721985, 771.922234)"><g><path d="M 7.875 -15.265625 C 8.664062 -15.265625 9.378906 -15.078125 10.015625 -14.703125 C 10.660156 -14.328125 11.160156 -13.804688 11.515625 -13.140625 C 11.867188 -12.484375 12.046875 -11.742188 12.046875 -10.921875 C 12.046875 -10.085938 11.867188 -9.328125 11.515625 -8.640625 C 11.160156 -7.960938 10.660156 -7.425781 10.015625 -7.03125 C 9.378906 -6.644531 8.664062 -6.453125 7.875 -6.453125 L 3.359375 -6.453125 L 3.359375 -0.65625 C 3.359375 -0.46875 3.296875 -0.3125 3.171875 -0.1875 C 3.046875 -0.0625 2.890625 0 2.703125 0 C 2.515625 0 2.359375 -0.0625 2.234375 -0.1875 C 2.109375 -0.3125 2.046875 -0.46875 2.046875 -0.65625 L 2.046875 -14.609375 C 2.046875 -14.796875 2.109375 -14.953125 2.234375 -15.078125 C 2.359375 -15.203125 2.515625 -15.265625 2.703125 -15.265625 Z M 7.875 -7.71875 C 8.71875 -7.71875 9.398438 -8.019531 9.921875 -8.625 C 10.441406 -9.238281 10.703125 -10.003906 10.703125 -10.921875 C 10.703125 -11.816406 10.441406 -12.546875 9.921875 -13.109375 C 9.398438 -13.679688 8.71875 -13.96875 7.875 -13.96875 L 3.359375 -13.96875 L 3.359375 -7.71875 Z M 7.875 -7.71875"/></g></g></g><g fill-opacity="1" fill="#004aad"><g transform="translate(472.667458, 771.922234)"><g><path d="M 10.703125 -1.28125 C 10.890625 -1.28125 11.046875 -1.210938 11.171875 -1.078125 C 11.296875 -0.953125 11.359375 -0.800781 11.359375 -0.625 C 11.359375 -0.4375 11.296875 -0.285156 11.171875 -0.171875 C 11.046875 -0.0546875 10.890625 0 10.703125 0 L 2.703125 0 C 2.515625 0 2.359375 -0.0625 2.234375 -0.1875 C 2.109375 -0.3125 2.046875 -0.46875 2.046875 -0.65625 L 2.046875 -14.609375 C 2.046875 -14.796875 2.109375 -14.953125 2.234375 -15.078125 C 2.359375 -15.203125 2.515625 -15.265625 2.703125 -15.265625 L 10.703125 -15.265625 C 10.890625 -15.265625 11.046875 -15.203125 11.171875 -15.078125 C 11.296875 -14.953125 11.359375 -14.796875 11.359375 -14.609375 C 11.359375 -14.421875 11.296875 -14.265625 11.171875 -14.140625 C 11.046875 -14.023438 10.890625 -13.96875 10.703125 -13.96875 L 3.421875 -13.96875 L 3.421875 -8.5 L 9.71875 -8.5 C 9.90625 -8.5 10.0625 -8.4375 10.1875 -8.3125 C 10.3125 -8.1875 10.375 -8.03125 10.375 -7.84375 C 10.375 -7.65625 10.3125 -7.503906 10.1875 -7.390625 C 10.0625 -7.273438 9.90625 -7.21875 9.71875 -7.21875 L 3.421875 -7.21875 L 3.421875 -1.28125 Z M 10.703125 -1.28125"/></g></g></g><g fill-opacity="1" fill="#004aad"><g transform="translate(487.002955, 771.922234)"><g><path d="M 13.421875 -0.875 C 13.453125 -0.757812 13.46875 -0.671875 13.46875 -0.609375 C 13.46875 -0.421875 13.398438 -0.269531 13.265625 -0.15625 C 13.140625 -0.0390625 12.988281 0.015625 12.8125 0.015625 C 12.664062 0.015625 12.535156 -0.0195312 12.421875 -0.09375 C 12.316406 -0.175781 12.238281 -0.285156 12.1875 -0.421875 L 10.546875 -4.40625 L 3.46875 -4.40625 L 1.859375 -0.421875 C 1.734375 -0.128906 1.535156 0.015625 1.265625 0.015625 C 1.054688 0.015625 0.898438 -0.03125 0.796875 -0.125 C 0.703125 -0.226562 0.644531 -0.367188 0.625 -0.546875 L 0.625 -0.609375 C 0.625 -0.691406 0.632812 -0.757812 0.65625 -0.8125 L 6.40625 -14.890625 C 6.519531 -15.179688 6.738281 -15.328125 7.0625 -15.328125 C 7.207031 -15.328125 7.332031 -15.285156 7.4375 -15.203125 C 7.550781 -15.117188 7.632812 -15.015625 7.6875 -14.890625 Z M 3.96875 -5.6875 L 10.03125 -5.6875 L 6.96875 -13.140625 Z M 3.96875 -5.6875"/></g></g></g><g fill-opacity="1" fill="#004aad"><g transform="translate(503.059472, 771.922234)"><g><path d="M 13.203125 -15.265625 C 13.398438 -15.265625 13.550781 -15.203125 13.65625 -15.078125 C 13.757812 -14.960938 13.8125 -14.816406 13.8125 -14.640625 L 13.8125 -0.703125 C 13.8125 -0.484375 13.742188 -0.3125 13.609375 -0.1875 C 13.484375 -0.0625 13.328125 0 13.140625 0 C 13.035156 0 12.9375 -0.0195312 12.84375 -0.0625 C 12.75 -0.101562 12.675781 -0.15625 12.625 -0.21875 L 3.265625 -12.8125 L 3.265625 -0.59375 C 3.265625 -0.425781 3.203125 -0.285156 3.078125 -0.171875 C 2.960938 -0.0546875 2.820312 0 2.65625 0 C 2.476562 0 2.332031 -0.0546875 2.21875 -0.171875 C 2.101562 -0.285156 2.046875 -0.425781 2.046875 -0.59375 L 2.046875 -14.609375 C 2.046875 -14.804688 2.109375 -14.960938 2.234375 -15.078125 C 2.359375 -15.203125 2.507812 -15.265625 2.6875 -15.265625 C 2.914062 -15.265625 3.085938 -15.179688 3.203125 -15.015625 L 12.59375 -2.359375 L 12.59375 -14.640625 C 12.59375 -14.816406 12.648438 -14.960938 12.765625 -15.078125 C 12.890625 -15.203125 13.035156 -15.265625 13.203125 -15.265625 Z M 13.203125 -15.265625"/></g></g></g><g fill-opacity="1" fill="#004aad"><g transform="translate(520.880588, 771.922234)"><g/></g></g><g fill-opacity="1" fill="#004aad"><g transform="translate(528.789485, 771.922234)"><g><path d="M 3.421875 -0.671875 C 3.410156 -0.484375 3.335938 -0.320312 3.203125 -0.1875 C 3.078125 -0.0625 2.914062 0 2.71875 0 C 2.519531 0 2.359375 -0.0625 2.234375 -0.1875 C 2.109375 -0.3125 2.046875 -0.472656 2.046875 -0.671875 L 2.046875 -14.578125 C 2.046875 -14.785156 2.109375 -14.953125 2.234375 -15.078125 C 2.367188 -15.203125 2.539062 -15.265625 2.75 -15.265625 C 2.9375 -15.265625 3.09375 -15.195312 3.21875 -15.0625 C 3.351562 -14.925781 3.421875 -14.765625 3.421875 -14.578125 Z M 3.421875 -0.671875"/></g></g></g><g fill-opacity="1" fill="#004aad"><g transform="translate(536.197325, 771.922234)"><g><path d="M 15.65625 -7.625 C 15.65625 -6.132812 15.34375 -4.789062 14.71875 -3.59375 C 14.09375 -2.40625 13.226562 -1.472656 12.125 -0.796875 C 11.019531 -0.117188 9.757812 0.21875 8.34375 0.21875 C 6.9375 0.21875 5.679688 -0.117188 4.578125 -0.796875 C 3.472656 -1.472656 2.609375 -2.40625 1.984375 -3.59375 C 1.359375 -4.789062 1.046875 -6.132812 1.046875 -7.625 C 1.046875 -9.132812 1.359375 -10.484375 1.984375 -11.671875 C 2.609375 -12.867188 3.472656 -13.800781 4.578125 -14.46875 C 5.679688 -15.132812 6.9375 -15.46875 8.34375 -15.46875 C 9.757812 -15.46875 11.019531 -15.132812 12.125 -14.46875 C 13.226562 -13.800781 14.09375 -12.867188 14.71875 -11.671875 C 15.34375 -10.484375 15.65625 -9.132812 15.65625 -7.625 Z M 14.25 -7.625 C 14.25 -8.894531 14 -10.023438 13.5 -11.015625 C 13 -12.015625 12.300781 -12.789062 11.40625 -13.34375 C 10.507812 -13.894531 9.488281 -14.171875 8.34375 -14.171875 C 7.195312 -14.171875 6.175781 -13.894531 5.28125 -13.34375 C 4.382812 -12.789062 3.6875 -12.015625 3.1875 -11.015625 C 2.6875 -10.023438 2.4375 -8.894531 2.4375 -7.625 C 2.4375 -6.363281 2.6875 -5.234375 3.1875 -4.234375 C 3.6875 -3.242188 4.382812 -2.472656 5.28125 -1.921875 C 6.175781 -1.367188 7.195312 -1.09375 8.34375 -1.09375 C 9.488281 -1.09375 10.507812 -1.367188 11.40625 -1.921875 C 12.300781 -2.472656 13 -3.242188 13.5 -4.234375 C 14 -5.234375 14.25 -6.363281 14.25 -7.625 Z M 14.25 -7.625"/></g></g></g><g fill-opacity="1" fill="#004aad"><g transform="translate(554.846272, 771.922234)"><g><path d="M 11.765625 -15.265625 C 11.953125 -15.265625 12.109375 -15.203125 12.234375 -15.078125 C 12.359375 -14.960938 12.421875 -14.8125 12.421875 -14.625 C 12.421875 -14.4375 12.359375 -14.285156 12.234375 -14.171875 C 12.109375 -14.066406 11.953125 -14.015625 11.765625 -14.015625 L 7.265625 -14.015625 L 7.265625 -0.65625 C 7.265625 -0.46875 7.195312 -0.3125 7.0625 -0.1875 C 6.925781 -0.0625 6.765625 0 6.578125 0 C 6.378906 0 6.21875 -0.0625 6.09375 -0.1875 C 5.96875 -0.3125 5.90625 -0.46875 5.90625 -0.65625 L 5.90625 -14.015625 L 1.390625 -14.015625 C 1.203125 -14.015625 1.046875 -14.070312 0.921875 -14.1875 C 0.796875 -14.300781 0.734375 -14.453125 0.734375 -14.640625 C 0.734375 -14.816406 0.796875 -14.960938 0.921875 -15.078125 C 1.046875 -15.203125 1.203125 -15.265625 1.390625 -15.265625 Z M 11.765625 -15.265625"/></g></g></g><g fill-opacity="1" fill="#004aad"><g transform="translate(569.966033, 771.922234)"><g><path d="M 1.890625 -5.03125 C 1.703125 -5.03125 1.550781 -5.09375 1.4375 -5.21875 C 1.320312 -5.34375 1.265625 -5.5 1.265625 -5.6875 C 1.265625 -5.875 1.320312 -6.023438 1.4375 -6.140625 C 1.550781 -6.265625 1.703125 -6.328125 1.890625 -6.328125 L 6.609375 -6.328125 C 6.796875 -6.328125 6.953125 -6.257812 7.078125 -6.125 C 7.203125 -5.988281 7.265625 -5.828125 7.265625 -5.640625 C 7.265625 -5.472656 7.203125 -5.328125 7.078125 -5.203125 C 6.953125 -5.085938 6.796875 -5.03125 6.609375 -5.03125 Z M 1.890625 -5.03125"/></g></g></g><g fill-opacity="1" fill="#004aad"><g transform="translate(580.423792, 771.922234)"><g><path d="M 10.703125 -1.28125 C 10.890625 -1.28125 11.046875 -1.210938 11.171875 -1.078125 C 11.296875 -0.953125 11.359375 -0.800781 11.359375 -0.625 C 11.359375 -0.4375 11.296875 -0.285156 11.171875 -0.171875 C 11.046875 -0.0546875 10.890625 0 10.703125 0 L 2.703125 0 C 2.515625 0 2.359375 -0.0625 2.234375 -0.1875 C 2.109375 -0.3125 2.046875 -0.46875 2.046875 -0.65625 L 2.046875 -14.609375 C 2.046875 -14.796875 2.109375 -14.953125 2.234375 -15.078125 C 2.359375 -15.203125 2.515625 -15.265625 2.703125 -15.265625 L 10.703125 -15.265625 C 10.890625 -15.265625 11.046875 -15.203125 11.171875 -15.078125 C 11.296875 -14.953125 11.359375 -14.796875 11.359375 -14.609375 C 11.359375 -14.421875 11.296875 -14.265625 11.171875 -14.140625 C 11.046875 -14.023438 10.890625 -13.96875 10.703125 -13.96875 L 3.421875 -13.96875 L 3.421875 -8.5 L 9.71875 -8.5 C 9.90625 -8.5 10.0625 -8.4375 10.1875 -8.3125 C 10.3125 -8.1875 10.375 -8.03125 10.375 -7.84375 C 10.375 -7.65625 10.3125 -7.503906 10.1875 -7.390625 C 10.0625 -7.273438 9.90625 -7.21875 9.71875 -7.21875 L 3.421875 -7.21875 L 3.421875 -1.28125 Z M 10.703125 -1.28125"/></g></g></g><g fill-opacity="1" fill="#004aad"><g transform="translate(594.759289, 771.922234)"><g><path d="M 8.265625 -15.265625 C 9.660156 -15.265625 10.832031 -14.914062 11.78125 -14.21875 C 12.726562 -13.53125 13.4375 -12.609375 13.90625 -11.453125 C 14.382812 -10.296875 14.625 -9.019531 14.625 -7.625 C 14.625 -6.1875 14.382812 -4.894531 13.90625 -3.75 C 13.4375 -2.601562 12.726562 -1.691406 11.78125 -1.015625 C 10.832031 -0.335938 9.660156 0 8.265625 0 L 2.703125 0 C 2.515625 0 2.359375 -0.0625 2.234375 -0.1875 C 2.109375 -0.3125 2.046875 -0.46875 2.046875 -0.65625 L 2.046875 -14.609375 C 2.046875 -14.796875 2.109375 -14.953125 2.234375 -15.078125 C 2.359375 -15.203125 2.515625 -15.265625 2.703125 -15.265625 Z M 8.046875 -1.28125 C 9.785156 -1.28125 11.082031 -1.863281 11.9375 -3.03125 C 12.800781 -4.207031 13.234375 -5.738281 13.234375 -7.625 C 13.234375 -8.800781 13.050781 -9.863281 12.6875 -10.8125 C 12.320312 -11.769531 11.75 -12.535156 10.96875 -13.109375 C 10.195312 -13.679688 9.222656 -13.96875 8.046875 -13.96875 L 3.421875 -13.96875 L 3.421875 -1.28125 Z M 8.046875 -1.28125"/></g></g></g><g fill-opacity="1" fill="#004aad"><g transform="translate(612.384333, 771.922234)"><g><path d="M 13.1875 -7.6875 C 13.375 -7.6875 13.53125 -7.625 13.65625 -7.5 C 13.78125 -7.382812 13.84375 -7.234375 13.84375 -7.046875 L 13.84375 -1.78125 C 13.84375 -1.539062 13.734375 -1.347656 13.515625 -1.203125 C 12.859375 -0.742188 12.128906 -0.390625 11.328125 -0.140625 C 10.535156 0.0976562 9.722656 0.21875 8.890625 0.21875 C 7.410156 0.21875 6.070312 -0.117188 4.875 -0.796875 C 3.6875 -1.484375 2.75 -2.421875 2.0625 -3.609375 C 1.382812 -4.804688 1.046875 -6.144531 1.046875 -7.625 C 1.046875 -9.113281 1.382812 -10.453125 2.0625 -11.640625 C 2.75 -12.828125 3.6875 -13.757812 4.875 -14.4375 C 6.070312 -15.125 7.410156 -15.46875 8.890625 -15.46875 C 9.660156 -15.46875 10.40625 -15.375 11.125 -15.1875 C 11.84375 -15 12.488281 -14.734375 13.0625 -14.390625 C 13.257812 -14.253906 13.359375 -14.070312 13.359375 -13.84375 C 13.359375 -13.65625 13.296875 -13.492188 13.171875 -13.359375 C 13.046875 -13.234375 12.90625 -13.171875 12.75 -13.171875 C 12.601562 -13.171875 12.472656 -13.207031 12.359375 -13.28125 C 11.265625 -13.875 10.109375 -14.171875 8.890625 -14.171875 C 7.660156 -14.171875 6.550781 -13.882812 5.5625 -13.3125 C 4.582031 -12.75 3.816406 -11.96875 3.265625 -10.96875 C 2.710938 -9.976562 2.4375 -8.863281 2.4375 -7.625 C 2.4375 -6.394531 2.710938 -5.28125 3.265625 -4.28125 C 3.816406 -3.289062 4.582031 -2.507812 5.5625 -1.9375 C 6.550781 -1.375 7.660156 -1.09375 8.890625 -1.09375 C 9.515625 -1.09375 10.144531 -1.175781 10.78125 -1.34375 C 11.414062 -1.519531 11.976562 -1.765625 12.46875 -2.078125 L 12.46875 -6.390625 L 9.03125 -6.390625 C 8.832031 -6.390625 8.664062 -6.445312 8.53125 -6.5625 C 8.40625 -6.6875 8.34375 -6.847656 8.34375 -7.046875 C 8.34375 -7.234375 8.40625 -7.382812 8.53125 -7.5 C 8.664062 -7.625 8.832031 -7.6875 9.03125 -7.6875 Z M 13.1875 -7.6875"/></g></g></g><g fill-opacity="1" fill="#004aad"><g transform="translate(629.486543, 771.922234)"><g><path d="M 10.703125 -1.28125 C 10.890625 -1.28125 11.046875 -1.210938 11.171875 -1.078125 C 11.296875 -0.953125 11.359375 -0.800781 11.359375 -0.625 C 11.359375 -0.4375 11.296875 -0.285156 11.171875 -0.171875 C 11.046875 -0.0546875 10.890625 0 10.703125 0 L 2.703125 0 C 2.515625 0 2.359375 -0.0625 2.234375 -0.1875 C 2.109375 -0.3125 2.046875 -0.46875 2.046875 -0.65625 L 2.046875 -14.609375 C 2.046875 -14.796875 2.109375 -14.953125 2.234375 -15.078125 C 2.359375 -15.203125 2.515625 -15.265625 2.703125 -15.265625 L 10.703125 -15.265625 C 10.890625 -15.265625 11.046875 -15.203125 11.171875 -15.078125 C 11.296875 -14.953125 11.359375 -14.796875 11.359375 -14.609375 C 11.359375 -14.421875 11.296875 -14.265625 11.171875 -14.140625 C 11.046875 -14.023438 10.890625 -13.96875 10.703125 -13.96875 L 3.421875 -13.96875 L 3.421875 -8.5 L 9.71875 -8.5 C 9.90625 -8.5 10.0625 -8.4375 10.1875 -8.3125 C 10.3125 -8.1875 10.375 -8.03125 10.375 -7.84375 C 10.375 -7.65625 10.3125 -7.503906 10.1875 -7.390625 C 10.0625 -7.273438 9.90625 -7.21875 9.71875 -7.21875 L 3.421875 -7.21875 L 3.421875 -1.28125 Z M 10.703125 -1.28125"/></g></g></g><g fill-opacity="1" fill="#004aad"><g transform="translate(643.822029, 771.922234)"><g><path d="M 1.890625 -5.03125 C 1.703125 -5.03125 1.550781 -5.09375 1.4375 -5.21875 C 1.320312 -5.34375 1.265625 -5.5 1.265625 -5.6875 C 1.265625 -5.875 1.320312 -6.023438 1.4375 -6.140625 C 1.550781 -6.265625 1.703125 -6.328125 1.890625 -6.328125 L 6.609375 -6.328125 C 6.796875 -6.328125 6.953125 -6.257812 7.078125 -6.125 C 7.203125 -5.988281 7.265625 -5.828125 7.265625 -5.640625 C 7.265625 -5.472656 7.203125 -5.328125 7.078125 -5.203125 C 6.953125 -5.085938 6.796875 -5.03125 6.609375 -5.03125 Z M 1.890625 -5.03125"/></g></g></g><g fill-opacity="1" fill="#004aad"><g transform="translate(654.279776, 771.922234)"><g><path d="M 13.1875 -14.125 C 13.40625 -13.988281 13.515625 -13.804688 13.515625 -13.578125 C 13.515625 -13.453125 13.460938 -13.304688 13.359375 -13.140625 C 13.234375 -12.984375 13.066406 -12.90625 12.859375 -12.90625 C 12.742188 -12.90625 12.628906 -12.941406 12.515625 -13.015625 C 11.347656 -13.785156 10.078125 -14.171875 8.703125 -14.171875 C 7.523438 -14.171875 6.457031 -13.894531 5.5 -13.34375 C 4.550781 -12.789062 3.800781 -12.015625 3.25 -11.015625 C 2.707031 -10.023438 2.4375 -8.894531 2.4375 -7.625 C 2.4375 -6.332031 2.710938 -5.1875 3.265625 -4.1875 C 3.816406 -3.195312 4.566406 -2.425781 5.515625 -1.875 C 6.472656 -1.332031 7.535156 -1.0625 8.703125 -1.0625 C 10.078125 -1.0625 11.335938 -1.441406 12.484375 -2.203125 C 12.597656 -2.273438 12.722656 -2.3125 12.859375 -2.3125 C 13.066406 -2.3125 13.234375 -2.222656 13.359375 -2.046875 C 13.460938 -1.929688 13.515625 -1.796875 13.515625 -1.640625 C 13.515625 -1.398438 13.410156 -1.222656 13.203125 -1.109375 C 12.640625 -0.734375 11.941406 -0.414062 11.109375 -0.15625 C 10.285156 0.09375 9.484375 0.21875 8.703125 0.21875 C 7.316406 0.21875 6.035156 -0.109375 4.859375 -0.765625 C 3.691406 -1.429688 2.765625 -2.359375 2.078125 -3.546875 C 1.390625 -4.742188 1.046875 -6.101562 1.046875 -7.625 C 1.046875 -9.09375 1.382812 -10.425781 2.0625 -11.625 C 2.75 -12.820312 3.671875 -13.757812 4.828125 -14.4375 C 5.992188 -15.113281 7.285156 -15.453125 8.703125 -15.453125 C 9.515625 -15.453125 10.304688 -15.332031 11.078125 -15.09375 C 11.859375 -14.863281 12.5625 -14.539062 13.1875 -14.125 Z M 13.1875 -14.125"/></g></g></g><g fill-opacity="1" fill="#004aad"><g transform="translate(670.467008, 771.922234)"><g><path d="M 10.484375 -1.28125 C 10.671875 -1.28125 10.828125 -1.222656 10.953125 -1.109375 C 11.078125 -0.992188 11.140625 -0.84375 11.140625 -0.65625 C 11.140625 -0.46875 11.078125 -0.3125 10.953125 -0.1875 C 10.828125 -0.0625 10.671875 0 10.484375 0 L 2.703125 0 C 2.515625 0 2.359375 -0.0625 2.234375 -0.1875 C 2.109375 -0.3125 2.046875 -0.46875 2.046875 -0.65625 L 2.046875 -14.609375 C 2.046875 -14.796875 2.109375 -14.953125 2.234375 -15.078125 C 2.367188 -15.203125 2.539062 -15.265625 2.75 -15.265625 C 2.9375 -15.265625 3.09375 -15.203125 3.21875 -15.078125 C 3.351562 -14.953125 3.421875 -14.796875 3.421875 -14.609375 L 3.421875 -1.28125 Z M 10.484375 -1.28125"/></g></g></g><g fill-opacity="1" fill="#004aad"><g transform="translate(684.01823, 771.922234)"><g><path d="M 15.65625 -7.625 C 15.65625 -6.132812 15.34375 -4.789062 14.71875 -3.59375 C 14.09375 -2.40625 13.226562 -1.472656 12.125 -0.796875 C 11.019531 -0.117188 9.757812 0.21875 8.34375 0.21875 C 6.9375 0.21875 5.679688 -0.117188 4.578125 -0.796875 C 3.472656 -1.472656 2.609375 -2.40625 1.984375 -3.59375 C 1.359375 -4.789062 1.046875 -6.132812 1.046875 -7.625 C 1.046875 -9.132812 1.359375 -10.484375 1.984375 -11.671875 C 2.609375 -12.867188 3.472656 -13.800781 4.578125 -14.46875 C 5.679688 -15.132812 6.9375 -15.46875 8.34375 -15.46875 C 9.757812 -15.46875 11.019531 -15.132812 12.125 -14.46875 C 13.226562 -13.800781 14.09375 -12.867188 14.71875 -11.671875 C 15.34375 -10.484375 15.65625 -9.132812 15.65625 -7.625 Z M 14.25 -7.625 C 14.25 -8.894531 14 -10.023438 13.5 -11.015625 C 13 -12.015625 12.300781 -12.789062 11.40625 -13.34375 C 10.507812 -13.894531 9.488281 -14.171875 8.34375 -14.171875 C 7.195312 -14.171875 6.175781 -13.894531 5.28125 -13.34375 C 4.382812 -12.789062 3.6875 -12.015625 3.1875 -11.015625 C 2.6875 -10.023438 2.4375 -8.894531 2.4375 -7.625 C 2.4375 -6.363281 2.6875 -5.234375 3.1875 -4.234375 C 3.6875 -3.242188 4.382812 -2.472656 5.28125 -1.921875 C 6.175781 -1.367188 7.195312 -1.09375 8.34375 -1.09375 C 9.488281 -1.09375 10.507812 -1.367188 11.40625 -1.921875 C 12.300781 -2.472656 13 -3.242188 13.5 -4.234375 C 14 -5.234375 14.25 -6.363281 14.25 -7.625 Z M 14.25 -7.625"/></g></g></g><g fill-opacity="1" fill="#004aad"><g transform="translate(702.667177, 771.922234)"><g><path d="M 12.84375 -15.265625 C 13.03125 -15.265625 13.1875 -15.203125 13.3125 -15.078125 C 13.4375 -14.953125 13.5 -14.796875 13.5 -14.609375 L 13.5 -5.578125 C 13.5 -4.515625 13.242188 -3.539062 12.734375 -2.65625 C 12.222656 -1.769531 11.53125 -1.070312 10.65625 -0.5625 C 9.78125 -0.0507812 8.820312 0.203125 7.78125 0.203125 C 6.71875 0.203125 5.75 -0.0507812 4.875 -0.5625 C 4.007812 -1.070312 3.320312 -1.769531 2.8125 -2.65625 C 2.300781 -3.539062 2.046875 -4.515625 2.046875 -5.578125 L 2.046875 -14.609375 C 2.046875 -14.796875 2.109375 -14.953125 2.234375 -15.078125 C 2.359375 -15.203125 2.53125 -15.265625 2.75 -15.265625 C 2.925781 -15.265625 3.078125 -15.203125 3.203125 -15.078125 C 3.335938 -14.953125 3.40625 -14.796875 3.40625 -14.609375 L 3.40625 -5.578125 C 3.40625 -4.765625 3.597656 -4.015625 3.984375 -3.328125 C 4.378906 -2.648438 4.914062 -2.109375 5.59375 -1.703125 C 6.269531 -1.304688 7 -1.109375 7.78125 -1.109375 C 8.582031 -1.109375 9.316406 -1.304688 9.984375 -1.703125 C 10.660156 -2.109375 11.195312 -2.648438 11.59375 -3.328125 C 12 -4.015625 12.203125 -4.765625 12.203125 -5.578125 L 12.203125 -14.609375 C 12.203125 -14.796875 12.257812 -14.953125 12.375 -15.078125 C 12.5 -15.203125 12.65625 -15.265625 12.84375 -15.265625 Z M 12.84375 -15.265625"/></g></g></g><g fill-opacity="1" fill="#004aad"><g transform="translate(720.161507, 771.922234)"><g><path d="M 8.265625 -15.265625 C 9.660156 -15.265625 10.832031 -14.914062 11.78125 -14.21875 C 12.726562 -13.53125 13.4375 -12.609375 13.90625 -11.453125 C 14.382812 -10.296875 14.625 -9.019531 14.625 -7.625 C 14.625 -6.1875 14.382812 -4.894531 13.90625 -3.75 C 13.4375 -2.601562 12.726562 -1.691406 11.78125 -1.015625 C 10.832031 -0.335938 9.660156 0 8.265625 0 L 2.703125 0 C 2.515625 0 2.359375 -0.0625 2.234375 -0.1875 C 2.109375 -0.3125 2.046875 -0.46875 2.046875 -0.65625 L 2.046875 -14.609375 C 2.046875 -14.796875 2.109375 -14.953125 2.234375 -15.078125 C 2.359375 -15.203125 2.515625 -15.265625 2.703125 -15.265625 Z M 8.046875 -1.28125 C 9.785156 -1.28125 11.082031 -1.863281 11.9375 -3.03125 C 12.800781 -4.207031 13.234375 -5.738281 13.234375 -7.625 C 13.234375 -8.800781 13.050781 -9.863281 12.6875 -10.8125 C 12.320312 -11.769531 11.75 -12.535156 10.96875 -13.109375 C 10.195312 -13.679688 9.222656 -13.96875 8.046875 -13.96875 L 3.421875 -13.96875 L 3.421875 -1.28125 Z M 8.046875 -1.28125"/></g></g></g><g clip-path="url(#9347c0b607)"><path fill-rule="nonzero" fill-opacity="1" d="M 336.757812 782.3125 L 229 782.3125 C 215.210938 782.3125 207.996094 771.5 207.996094 760.820312 C 207.996094 750.144531 215.210938 739.332031 229 739.332031 L 336.757812 739.332031 C 350.546875 739.332031 357.761719 750.144531 357.761719 760.820312 C 357.761719 771.5 350.546875 782.3125 336.757812 782.3125 Z M 229 753.453125 C 222.445312 753.453125 222.109375 759.589844 222.109375 760.820312 C 222.109375 762.050781 222.445312 768.1875 229 768.1875 L 336.757812 768.1875 C 343.3125 768.1875 343.644531 762.050781 343.644531 760.820312 C 343.644531 759.589844 343.3125 753.453125 336.757812 753.453125 Z M 229 753.453125" fill="#004aad"/></g><g fill-opacity="1" fill="#004aad"><g transform="translate(392.807013, 731.781253)"><g><path d="M 23.523438 2.136719 C 27.296875 2.136719 31.070312 -1.507812 34.96875 -5.410156 L 35.851562 0.503906 C 40.757812 1.007812 48.304688 0.378906 52.453125 -0.503906 L 52.453125 -30.691406 C 52.453125 -45.914062 40.128906 -50.820312 28.554688 -50.820312 C 19.875 -50.820312 12.074219 -49.433594 4.527344 -46.039062 C 5.410156 -41.132812 7.925781 -35.976562 10.691406 -32.832031 C 13.710938 -34.464844 19.875 -35.472656 24.402344 -35.472656 C 30.316406 -35.472656 33.207031 -33.585938 33.207031 -29.8125 L 33.207031 -29.308594 C 30.691406 -29.8125 27.925781 -30.0625 25.660156 -30.0625 C 12.703125 -30.0625 3.394531 -24.90625 3.394531 -14.71875 C 3.394531 -4.152344 10.816406 2.136719 23.523438 2.136719 Z M 28.429688 -13.207031 C 25.285156 -13.207031 22.390625 -14.214844 22.390625 -17.109375 C 22.390625 -17.738281 22.515625 -18.367188 22.515625 -18.367188 C 23.898438 -18.996094 25.660156 -19.246094 28.050781 -19.246094 C 29.9375 -19.246094 31.824219 -19.121094 33.460938 -18.867188 L 33.585938 -13.710938 C 32.203125 -13.460938 30.316406 -13.207031 28.429688 -13.207031 Z M 28.429688 -13.207031"/></g></g></g><g fill-opacity="1" fill="#004aad"><g transform="translate(461.236549, 731.781253)"><g><path d="M 29.5625 -50.820312 C 12.453125 -50.820312 2.265625 -40.882812 2.265625 -23.898438 C 2.265625 -7.671875 11.824219 1.886719 30.0625 1.886719 C 38.113281 1.886719 45.285156 0.753906 51.195312 -1.507812 C 50.820312 -6.917969 49.6875 -11.320312 47.421875 -15.847656 C 43.523438 -14.464844 37.609375 -13.710938 32.707031 -13.710938 C 26.792969 -13.710938 22.265625 -14.84375 20.503906 -20.503906 L 52.957031 -20.503906 C 54.71875 -42.644531 42.015625 -50.820312 29.5625 -50.820312 Z M 19.875 -31.070312 C 20.125 -33.964844 20.628906 -35.472656 21.257812 -36.480469 C 22.769531 -36.980469 25.03125 -37.234375 26.792969 -37.234375 C 31.320312 -37.234375 33.710938 -35.09375 33.835938 -31.070312 Z M 19.875 -31.070312"/></g></g></g><g fill-opacity="1" fill="#004aad"><g transform="translate(528.282401, 731.781253)"><g><path d="M 5.660156 0.503906 C 14.089844 1.761719 21.886719 0.753906 24.527344 -0.503906 L 24.527344 -33.082031 C 26.039062 -33.335938 27.671875 -33.585938 29.9375 -33.585938 C 33.835938 -33.585938 37.359375 -33.082031 40 -32.578125 C 41.132812 -37.484375 41.511719 -44.53125 40.882812 -49.433594 C 39.75 -49.9375 37.359375 -50.316406 34.84375 -50.316406 C 32.453125 -50.316406 30.316406 -49.9375 28.554688 -49.183594 C 26.542969 -48.304688 24.277344 -45.410156 22.515625 -43.144531 C 22.640625 -45.410156 22.769531 -47.675781 22.769531 -49.5625 C 17.609375 -49.8125 9.558594 -48.679688 4.402344 -46.667969 C 5.28125 -30.945312 5.535156 -15.21875 5.660156 0.503906 Z M 5.660156 0.503906"/></g></g></g><g fill-opacity="1" fill="#004aad"><g transform="translate(581.365668, 731.781253)"><g><path d="M 39.246094 1.886719 C 61.636719 1.886719 74.84375 -11.445312 74.84375 -34.464844 C 74.84375 -54.84375 64.40625 -70.945312 38.742188 -70.945312 C 16.351562 -70.945312 3.144531 -57.613281 3.144531 -34.464844 C 3.144531 -14.214844 13.460938 1.886719 39.246094 1.886719 Z M 41.132812 -14.84375 C 30.691406 -14.84375 24.027344 -22.140625 24.027344 -34.464844 C 24.027344 -41.636719 24.65625 -47.046875 26.542969 -52.328125 C 30.0625 -53.710938 32.832031 -54.214844 36.855469 -54.214844 C 47.296875 -54.214844 53.964844 -46.917969 53.964844 -34.464844 C 53.964844 -27.421875 53.335938 -22.011719 51.449219 -16.730469 C 47.925781 -15.347656 45.160156 -14.84375 41.132812 -14.84375 Z M 41.132812 -14.84375"/></g></g></g><g fill-opacity="1" fill="#004aad"><g transform="translate(670.676176, 731.781253)"><g><path d="M 29.183594 1.886719 C 45.914062 1.886719 59.121094 -4.527344 59.121094 -22.140625 C 59.121094 -32.832031 51.953125 -38.492188 38.113281 -42.769531 L 32.078125 -44.65625 C 25.15625 -46.792969 24.527344 -47.925781 24.527344 -50.566406 C 24.527344 -51.699219 24.90625 -52.832031 24.78125 -52.832031 C 27.042969 -53.460938 29.9375 -53.839844 32.957031 -53.839844 C 39.75 -53.839844 46.164062 -52.453125 51.070312 -49.8125 C 54.089844 -53.964844 56.355469 -60.503906 57.234375 -65.789062 C 51.195312 -69.308594 43.398438 -71.070312 34.339844 -71.070312 C 15.722656 -71.070312 4.527344 -61.890625 4.527344 -47.421875 C 4.527344 -36.101562 11.824219 -30.691406 25.535156 -26.414062 L 31.574219 -24.527344 C 38.492188 -22.390625 39.121094 -21.257812 39.121094 -18.617188 C 39.121094 -17.109375 38.742188 -16.226562 38.867188 -16.226562 C 37.109375 -15.597656 34.089844 -15.347656 30.441406 -15.347656 C 24.277344 -15.347656 13.835938 -17.234375 9.058594 -20.882812 C 6.289062 -17.109375 3.898438 -9.433594 3.523438 -4.277344 C 8.429688 -0.628906 18.113281 1.886719 29.183594 1.886719 Z M 29.183594 1.886719"/></g></g></g><g clip-path="url(#4d78d32285)"><path fill-rule="nonzero" fill-opacity="1" d="M 336.757812 733.335938 L 229 733.335938 C 215.210938 733.335938 207.996094 722.523438 207.996094 711.84375 C 207.996094 701.164062 215.210938 690.355469 229 690.355469 L 336.757812 690.355469 C 350.546875 690.355469 357.761719 701.164062 357.761719 711.84375 C 357.761719 722.523438 350.546875 733.335938 336.757812 733.335938 Z M 229 704.476562 C 222.445312 704.476562 222.109375 710.613281 222.109375 711.84375 C 222.109375 713.074219 222.445312 719.210938 229 719.210938 L 336.757812 719.210938 C 343.3125 719.210938 343.644531 713.074219 343.644531 711.84375 C 343.644531 710.613281 343.3125 704.476562 336.757812 704.476562 Z M 229 704.476562" fill="#8e9dcc"/></g><g clip-path="url(#901189add4)"><path fill-rule="nonzero" fill-opacity="1" d="M 336.757812 684.355469 L 229 684.355469 C 215.210938 684.355469 207.996094 673.546875 207.996094 662.867188 C 207.996094 652.1875 215.210938 641.378906 229 641.378906 L 336.757812 641.378906 C 350.546875 641.378906 357.761719 652.1875 357.761719 662.867188 C 357.761719 673.546875 350.546875 684.355469 336.757812 684.355469 Z M 229 655.5 C 222.445312 655.5 222.109375 661.636719 222.109375 662.867188 C 222.109375 664.097656 222.445312 670.234375 229 670.234375 L 336.757812 670.234375 C 343.3125 670.234375 343.644531 664.097656 343.644531 662.867188 C 343.644531 661.636719 343.3125 655.5 336.757812 655.5 Z M 229 655.5" fill="#d9dbf1"/></g></svg>