<svg version="1.1" xmlns="http://www.w3.org/2000/svg" width="1024" height="1024">

<path d="M0 0 C4.38605772 3.97805235 7.90108263 8.32543028 8.25 14.4375 C7.87185495 19.9152011 5.53925041 24.69467608 1.5625 28.4375 C-0.3125 29.4375 -0.3125 29.4375 -2.3125 29.4375 C-1.9825 36.6975 -1.6525 43.9575 -1.3125 51.4375 C0.33153809 51.4468457 1.97557617 51.45619141 3.66943359 51.46582031 C9.80121403 51.50585839 15.93250005 51.57165675 22.06396484 51.64501953 C24.71168642 51.67314895 27.35949072 51.69440316 30.00732422 51.70849609 C33.82562364 51.73003596 37.6429368 51.77674647 41.4609375 51.828125 C42.63425629 51.82935364 43.80757507 51.83058228 45.01644897 51.83184814 C54.67675353 52.00186492 62.9633582 53.98957041 70.16015625 60.74609375 C79.33336298 70.90465773 80.22292255 82.3812718 80.6875 95.4375 C81.23277344 95.56125 81.77804687 95.685 82.33984375 95.8125 C89.124897 97.66824106 94.16293231 101.02255554 98.6875 106.4375 C102.11918108 113.29718404 102.17906018 119.5300264 102.13354492 127.08813477 C102.1250598 129.2348713 102.15380378 131.37891769 102.18554688 133.52539062 C102.23315452 142.8201271 101.55427806 151.09916364 95.125 158.3125 C92.29208218 160.4480842 89.40132433 161.04902742 86 161.9375 C83.07890671 162.7665449 83.07890671 162.7665449 80.6875 164.4375 C79.32531262 167.68545166 78.81134363 170.69508445 78.28125 174.171875 C76.93238998 181.59060509 71.84798401 187.46819191 65.8046875 191.78125 C58.87453883 196.31351453 52.98770193 197.73857011 44.7890625 197.6328125 C43.95410248 197.6299826 43.11914246 197.62715271 42.25888062 197.62423706 C39.60993709 197.61310301 36.96134016 197.58801127 34.3125 197.5625 C32.50911949 197.55246143 30.70573364 197.54333712 28.90234375 197.53515625 C24.49726367 197.5131859 20.09244047 197.47870321 15.6875 197.4375 C15.6875 202.0575 15.6875 206.6775 15.6875 211.4375 C17.14865234 211.41131592 18.60980469 211.38513184 20.11523438 211.3581543 C25.60937794 211.26668988 31.10345627 211.2099047 36.59814453 211.1628418 C38.962518 211.13791472 41.32681618 211.10396036 43.69091797 211.06030273 C63.11420788 210.71096299 79.71569604 211.41049278 94.671875 225.27734375 C100.35050561 231.21078471 103.37778122 238.3418911 105.85546875 246.08984375 C107.99845529 251.82655787 111.69794 256.56344016 115.25 261.5 C116.68995384 263.5330389 118.12875454 265.56689502 119.56640625 267.6015625 C120.26781738 268.5905957 120.96922852 269.57962891 121.69189453 270.59863281 C124.42167253 274.48190399 127.0689884 278.41612399 129.6875 282.375 C130.10201416 283.00092041 130.51652832 283.62684082 130.94360352 284.27172852 C131.86033798 285.65893199 132.774311 287.04796 133.6875 288.4375 C140.72319736 286.74599088 147.61325564 284.68268756 154.52929688 282.56054688 C155.37943359 282.30208984 156.22957031 282.04363281 157.10546875 281.77734375 C157.86625732 281.54394287 158.6270459 281.31054199 159.41088867 281.07006836 C161.6875 280.4375 161.6875 280.4375 164.38818359 279.98120117 C166.86630512 279.67004254 166.86630512 279.67004254 168.05859375 277.3984375 C168.41050781 276.54507812 168.76242187 275.69171875 169.125 274.8125 C173.31082005 265.75614241 178.28345708 261.04412185 187.6875 257.4375 C191.93873364 256.2852296 196.12836262 256.32104096 200.5 256.375 C202.871875 256.395625 205.24375 256.41625 207.6875 256.4375 C208.3475 251.4875 209.0075 246.5375 209.6875 241.4375 C207.3775 241.375625 205.0675 241.31375 202.6875 241.25 C183.67442016 240.29020038 166.67271575 231.8542778 153.5 218.1640625 C141.2733731 203.78822384 135.97381881 187.26595617 134.375 168.6796875 C134.755711 164.72981087 135.92072757 163.21444438 138.6875 160.4375 C147.32847495 156.11701253 162.48313189 159.48123733 171.2578125 162.1796875 C191.98852645 169.78252337 205.01783323 184.09816646 214.6875 203.4375 C216.71821083 197.21292984 217.52338054 190.98607882 218.3125 184.5 C218.4465625 183.43458984 218.580625 182.36917969 218.71875 181.27148438 C219.0465583 178.66072541 219.36933513 176.04944869 219.6875 173.4375 C218.63691406 172.92960938 217.58632813 172.42171875 216.50390625 171.8984375 C195.92643262 161.85992748 180.61654747 149.87715411 172.52734375 127.83203125 C170.40533092 121.26574503 170.01049821 114.98168515 169.75 108.125 C169.15746836 97.69545093 167.90114114 89.07520493 163.6875 79.4375 C163.4179248 78.82068359 163.14834961 78.20386719 162.87060547 77.56835938 C162.5923291 76.93220703 162.31405273 76.29605469 162.02734375 75.640625 C161.61500488 74.69376831 161.61500488 74.69376831 161.19433594 73.7277832 C160.42770332 71.99417922 159.62714753 70.2756883 158.82421875 68.55859375 C157.6192961 65.25023225 157.32798339 62.92780708 157.6875 59.4375 C161.98629719 54.39753089 169.39051715 51.80718456 175.87255859 51.24951172 C182.80909629 50.96366144 189.90746479 50.77625631 196.6875 52.4375 C197.05875 51.56931641 197.05875 51.56931641 197.4375 50.68359375 C201.95937675 42.55834646 211.37324072 37.56828361 219.8984375 34.69140625 C233.83751363 31.0430921 247.36612378 34.17169226 259.859375 40.76171875 C265.1666093 43.90647498 269.9369724 47.46269515 274.03515625 52.0859375 C277.23680931 54.9245165 278.97225958 55.15678662 283.1875 55.5 C294.81496992 56.82850547 305.25746556 59.26675081 313.28125 68.21484375 C316.63918182 72.77603447 317.5077454 77.00142086 317.2421875 82.625 C316.06740441 88.58164666 312.84953016 93.72684679 308.10546875 97.48046875 C304.42563983 101.98067956 304.35768945 106.7197825 303.6875 112.375 C301.67107814 126.75915308 298.40894262 138.53083485 289.6875 150.4375 C289.17703125 151.14390625 288.6665625 151.8503125 288.140625 152.578125 C278.39167011 164.83671184 262.94409886 172.12493664 247.6875 174.4375 C245.59663433 174.63712284 243.50397621 174.81858448 241.41015625 174.984375 C240.33644775 175.07041992 239.26273926 175.15646484 238.15649414 175.24511719 C237.34172607 175.30860352 236.52695801 175.37208984 235.6875 175.4375 C234.82894653 180.63296627 233.97456408 185.82909484 233.12402344 191.02587891 C232.83415151 192.79331946 232.54314483 194.56057431 232.25097656 196.32763672 C231.83098986 198.86898482 231.41510128 201.41097494 231 203.953125 C230.86875732 204.74180969 230.73751465 205.53049438 230.60229492 206.34307861 C230.04589653 209.77280266 229.6875 212.95223609 229.6875 216.4375 C230.31914063 215.82003906 230.95078125 215.20257813 231.6015625 214.56640625 C241.95100015 204.76873977 253.11444258 197.12500527 266.6875 192.4375 C268.23824219 191.89029297 268.23824219 191.89029297 269.8203125 191.33203125 C274.96062646 190.14300913 279.86410322 190.05421186 285.125 190.0625 C286.18452881 190.06411133 287.24405762 190.06572266 288.33569336 190.06738281 C300.01974289 190.24815992 310.70808108 192.03699142 320.6875 198.4375 C322.6875 201.4375 322.6875 201.4375 322.5546875 204.67578125 C321.60149397 208.81058019 320.0253045 212.05887895 317.8125 215.625 C317.41611328 216.27210938 317.01972656 216.91921875 316.61132812 217.5859375 C305.97166638 234.3784579 290.65749305 246.52512472 271.17797852 251.30566406 C254.82714067 254.77384883 239.49185464 251.9530299 223.6875 247.4375 C223.3575 252.3875 223.0275 257.3375 222.6875 262.4375 C224.9975 262.4375 227.3075 262.4375 229.6875 262.4375 C237.56462721 263.79193816 244.30799467 267.07440729 249.2578125 273.46484375 C255.8994161 283.65496127 253.80492317 294.44030511 251.9375 305.9375 C251.78023437 307.00097656 251.62296875 308.06445312 251.4609375 309.16015625 C249.91737063 318.83713319 247.54306529 328.91057155 239.6875 335.4375 C233.66729665 339.05337877 228.14065497 341.57927548 221.0625 341.625 C220.08023437 341.63917969 219.09796875 341.65335937 218.0859375 341.66796875 C213.82395109 341.37893749 209.82622182 340.45972838 205.6875 339.4375 C205.43581055 340.2531543 205.18412109 341.06880859 204.92480469 341.90917969 C203.97160596 344.99593598 203.01719296 348.0823137 202.06201172 351.16845703 C201.65236096 352.49285569 201.24316558 353.8173953 200.83447266 355.14208984 C198.22177246 363.60929268 195.53210045 372.04494778 192.6875 380.4375 C193.24745163 380.42861755 193.80740326 380.41973511 194.38432312 380.4105835 C200.27409534 380.3212841 206.1636717 380.2614278 212.05395508 380.21777344 C214.2447899 380.19780258 216.43557243 380.17061622 218.6262207 380.13574219 C247.13463195 379.69365052 247.13463195 379.69365052 257.75 388.1875 C263.06497819 393.40495565 266.73864614 399.92073814 267 407.5 C266.7590165 419.03013351 259.32669271 427.63760979 252.6875 436.4375 C251.74433083 437.6988743 250.80162662 438.96059639 249.859375 440.22265625 C247.87330194 442.8783503 245.87959563 445.52813394 243.8828125 448.17578125 C241.08102975 451.89963677 238.32197173 455.65348643 235.5690918 459.41357422 C229.80311218 467.28800308 223.91477733 475.04323489 217.88305664 482.71582031 C213.14840746 488.76924088 208.63105142 494.962595 204.21264648 501.25024414 C195.92347425 512.94038102 187.18646511 522.32275737 172.6875 525.4375 C169.85256981 525.70657209 167.03905507 525.71227543 164.19288635 525.69819641 C163.36358878 525.70202196 162.5342912 525.70584751 161.67986339 525.70978898 C158.91484677 525.72006673 156.15003984 525.71613681 153.38500977 525.7121582 C151.39698088 525.71650754 149.40895368 525.72169143 147.42092896 525.72764587 C142.03046343 525.74102256 136.64006809 525.74161606 131.2495892 525.73908257 C126.74657151 525.73801206 122.24356798 525.74289826 117.74055332 525.747688 C107.1163314 525.75877838 96.49214483 525.75922308 85.86791992 525.75317383 C74.91328493 525.74713231 63.95877832 525.7594507 53.00416523 525.7807439 C43.59250367 525.79836425 34.18088296 525.8043606 24.76920551 525.80110615 C19.15082014 525.799294 13.53252637 525.80192289 7.91415596 525.81582069 C2.63063653 525.82840156 -2.65268281 525.82645237 -7.93619919 525.81340981 C-9.87275193 525.81104513 -11.80931876 525.8137748 -13.74585533 525.82203293 C-16.39443573 525.83251119 -19.04234605 525.82439117 -21.69090271 525.8117218 C-22.45268764 525.81909609 -23.21447258 525.82647037 -23.99934191 525.83406812 C-30.12449399 525.77265353 -35.55035678 524.51151346 -40.5546875 520.75390625 C-41.09351563 520.17511719 -41.63234375 519.59632813 -42.1875 519 C-42.74179687 518.42378906 -43.29609375 517.84757813 -43.8671875 517.25390625 C-47.0776597 513.21912362 -47.82519375 509.88562872 -47.68359375 504.8046875 C-46.76766424 498.96202135 -43.09855635 494.94390357 -38.6875 491.2578125 C-33.98453785 487.21795081 -29.65704917 482.85618824 -25.3125 478.4375 C-20.53438308 473.57784525 -15.73219774 468.8688699 -10.55053711 464.44091797 C-7.95774298 462.11993306 -5.51105684 459.68345475 -3.05859375 457.21484375 C-2.16712646 456.31886475 -1.27565918 455.42288574 -0.35717773 454.49975586 C0.31756592 453.81921143 0.99230957 453.13866699 1.6875 452.4375 C0.66400955 452.43607498 -0.3594809 452.43464996 -1.41398621 452.43318176 C-11.10809014 452.41643758 -20.80177828 452.37343889 -30.49566174 452.30540943 C-35.47820623 452.27126861 -40.46044829 452.24604964 -45.44311523 452.24194336 C-50.26097721 452.23763257 -55.07815846 452.20894161 -59.89580727 452.16406822 C-61.72434827 452.15118147 -63.5529711 452.14675387 -65.38155174 452.15134621 C-79.92561372 452.17933832 -92.00002914 450.52089975 -103.3125 440.4375 C-103.90417969 439.96054687 -104.49585938 439.48359375 -105.10546875 438.9921875 C-111.54380529 433.33554745 -116.63150909 423.88748184 -118.3125 415.4375 C-118.38874197 413.80788671 -118.41167234 412.17536396 -118.396698 410.54403687 C-118.39059006 409.56011963 -118.38448212 408.57620239 -118.37818909 407.56246948 C-118.36666306 406.48917389 -118.35513702 405.4158783 -118.34326172 404.31005859 C-118.32715783 401.95665749 -118.3114604 399.60325357 -118.29611206 397.24984741 C-118.28657375 396.00154522 -118.27703545 394.75324303 -118.2672081 393.46711349 C-118.22012692 386.16391679 -118.22213672 378.86055638 -118.2174089 371.55723071 C-118.21163282 363.83343279 -118.18796721 356.11064699 -118.11035156 348.38720703 C-118.04214866 341.58696852 -118.03187796 334.78852358 -118.05560684 327.98799515 C-118.05499721 325.40047036 -118.03495022 322.81287236 -117.99483871 320.22565842 C-117.037722 306.27725553 -117.037722 306.27725553 -121.74029541 293.73175049 C-124.47666458 291.26557459 -127.22302264 289.41837491 -130.3125 287.4375 C-132.42561396 284.58295141 -133.94841235 281.70917896 -135.3125 278.4375 C-135.83972656 277.23867188 -136.36695313 276.03984375 -136.91015625 274.8046875 C-138.69972318 269.94632377 -138.80922061 265.32290618 -138.75 260.1875 C-138.74170166 259.26090576 -138.73340332 258.33431152 -138.72485352 257.37963867 C-138.39021738 243.77149948 -133.51846232 233.16587506 -123.6875 223.6875 C-109.02366216 211.68466748 -91.52941804 210.99683269 -73.5625 211.25 C-71.69011497 211.26507896 -69.81771815 211.27876166 -67.9453125 211.29101562 C-63.40074566 211.32375561 -58.85675601 211.37535905 -54.3125 211.4375 C-54.3125 206.8175 -54.3125 202.1975 -54.3125 197.4375 C-55.35148437 197.47230469 -56.39046875 197.50710938 -57.4609375 197.54296875 C-69.5425425 197.83021152 -79.0437635 196.95627649 -88.3125 188.4375 C-94.19937753 182.72793806 -98.05307466 177.28010638 -98.5 168.9375 C-98.438125 168.1125 -98.37625 167.2875 -98.3125 166.4375 C-99.385 166.39625 -100.4575 166.355 -101.5625 166.3125 C-109.30926138 165.30624808 -117.08200601 161.63777541 -121.9375 155.4375 C-126.97873767 148.10479066 -126.6785711 140.30835224 -126.6875 131.75 C-126.71199219 130.53376953 -126.73648437 129.31753906 -126.76171875 128.06445312 C-126.79107797 118.94841555 -125.33693711 111.4062181 -120.5625 103.5625 C-114.30084054 97.64871051 -107.62799198 95.31765719 -99.3125 93.4375 C-99.29832031 92.49390625 -99.28414063 91.5503125 -99.26953125 90.578125 C-98.86694036 79.74081335 -97.27209625 70.29725423 -89.625 62 C-83.34630724 56.27039444 -75.54798532 52.37141235 -67.01489258 52.23217773 C-65.39355156 52.2022599 -65.39355156 52.2022599 -63.73945618 52.17173767 C-62.57375595 52.15502518 -61.40805573 52.13831268 -60.20703125 52.12109375 C-59.01268967 52.10031265 -57.81834808 52.07953156 -56.58781433 52.05812073 C-52.76693557 51.99265724 -48.94598724 51.9337549 -45.125 51.875 C-42.53710214 51.83181176 -39.94921135 51.78819737 -37.36132812 51.74414062 C-31.01179032 51.63697905 -24.66218244 51.53570236 -18.3125 51.4375 C-17.9825 44.1775 -17.6525 36.9175 -17.3125 29.4375 C-18.9625 28.7775 -20.6125 28.1175 -22.3125 27.4375 C-26.69079216 22.69435016 -27.62506608 18.98532699 -27.5234375 12.71484375 C-27.06377092 7.75214715 -24.96023323 5.05707092 -21.4375 1.6875 C-14.42800505 -3.35933636 -7.8840124 -3.71887377 0 0 Z " fill="#02496B" transform="translate(424.3125,157.5625)" data-index="0" style="opacity: 1; visibility: visible;"></path>
<path d="M0 0 C16.94207374 -0.09354845 33.88406658 -0.16403055 50.82633972 -0.20724869 C58.69339648 -0.22785132 66.56029251 -0.25592768 74.42724609 -0.30175781 C81.28615683 -0.3416963 88.14495113 -0.36744953 95.00397491 -0.37635398 C98.63396117 -0.38155694 102.2636144 -0.39373712 105.89349365 -0.42292023 C109.95127981 -0.45527727 114.00849141 -0.45595494 118.06640625 -0.45410156 C119.86068306 -0.47567322 119.86068306 -0.47567322 121.69120789 -0.49768066 C128.60449997 -0.463534 133.14142418 0.23537479 139 4 C141.60368759 6.99424073 142.85846704 8.86930894 143.3515625 12.80859375 C142.91153802 16.80303818 141.26896097 19.10753155 138.875 22.1875 C138.43124023 22.78280518 137.98748047 23.37811035 137.53027344 23.99145508 C136.55346728 25.30059566 135.57075551 26.605345 134.58300781 27.90625 C132.35805996 30.84905579 130.1816342 33.82666488 128.00048828 36.80200195 C126.2189261 39.22984632 124.43081042 41.65272701 122.640625 44.07421875 C119.08856338 48.87899942 115.54363656 53.68900394 112 58.5 C110.83594846 60.07943516 109.67188595 61.65886223 108.5078125 63.23828125 C106.14656803 66.44263898 103.78741454 69.64852217 101.4296875 72.85546875 C95.78908552 80.52529756 90.13720487 88.18644821 84.4375 95.8125 C83.96103027 96.4521167 83.48456055 97.0917334 82.99365234 97.75073242 C82.09319293 98.95214581 81.18393047 100.14702189 80.26513672 101.33447266 C79.09428962 102.87586959 77.99837585 104.47341721 76.91015625 106.07421875 C72.0977203 111.5826015 65.00773483 114.85867727 57.78746223 115.55058479 C52.76752421 115.8329867 47.75039251 115.77788782 42.72485352 115.72875977 C40.80018026 115.73198392 38.87550989 115.73780841 36.95085144 115.74601746 C31.75688518 115.76047505 26.56370027 115.73771231 21.36982846 115.70715833 C15.92429153 115.68069101 10.47877602 115.68609145 5.03318787 115.6872406 C-4.10162339 115.68443761 -13.23613428 115.65847156 -22.37084961 115.61743164 C-32.93088923 115.57016343 -43.49060099 115.55444111 -54.05073875 115.5566383 C-65.30661533 115.55866387 -76.56236567 115.53785633 -87.81820416 115.51029849 C-91.05871832 115.503906 -94.2992121 115.50177522 -97.53973198 115.50058174 C-102.62637652 115.49756963 -107.71274561 115.47926553 -112.79929924 115.44908333 C-114.66614597 115.44031895 -116.5330244 115.43663009 -118.3998909 115.43836594 C-120.94640672 115.43983784 -123.49215069 115.42287593 -126.03855896 115.40113831 C-126.77843518 115.40578411 -127.5183114 115.41042992 -128.28060812 115.41521651 C-132.69024979 115.35297233 -135.43920854 114.62279666 -139 112 C-138.68909493 106.60429259 -135.64074578 104.13902134 -131.9375 100.625 C-131.34694824 100.04991699 -130.75639648 99.47483398 -130.14794922 98.88232422 C-126.45569906 95.31129705 -122.67320585 91.86468949 -118.7578125 88.5390625 C-116.30723913 86.39344937 -114.05861231 84.06874586 -111.77734375 81.74609375 C-109.93406426 79.93522357 -108.02177201 78.24678646 -106.0625 76.5625 C-102.61578784 73.59394444 -99.40889141 70.45920896 -96.25 67.1875 C-94.29928431 65.29097086 -92.30750988 63.50528958 -90.25390625 61.72265625 C-86.04507262 58.06631107 -81.98254653 54.27327899 -77.9375 50.4375 C-76.4455337 49.02841158 -74.95334169 47.61956212 -73.4609375 46.2109375 C-72.71682617 45.50807617 -71.97271484 44.80521484 -71.20605469 44.08105469 C-62.23351968 35.61692361 -53.24795569 27.16340938 -44 19 C-43.00123072 18.07690013 -42.00253665 17.15371887 -41.00390625 16.23046875 C-32.30728706 8.36611397 -32.30728706 8.36611397 -27.625 8.3125 C-26.42875 8.539375 -25.2325 8.76625 -24 9 C-17.64460456 10.10528616 -11.25546045 11.17750697 -5.0625 8.9375 C-2.30820121 6.35012841 -1.40723844 3.46798078 0 0 Z " fill="#96E3E7" transform="translate(533,553)" data-index="1" style="opacity: 1;"></path>
<path d="M0 0 C3.39807807 -0.01109941 6.79601698 -0.02896065 10.19403076 -0.05255127 C14.26400483 -0.08011569 18.33375357 -0.0921855 22.40381813 -0.09296608 C23.91867649 -0.09558981 25.43353599 -0.10327038 26.94833946 -0.11643028 C46.36336811 -0.27527258 46.36336811 -0.27527258 53.41744995 6.10617065 C53.96272339 6.57796753 54.50799683 7.0497644 55.0697937 7.53585815 C58.88828467 12.12650935 58.77685015 17.23595541 58.77047729 22.94943237 C58.77719452 23.81673981 58.78391174 24.68404724 58.79083252 25.57763672 C58.80979758 28.43876914 58.81373591 31.29966682 58.81588745 34.16085815 C58.82231621 36.15476579 58.82904463 38.14867247 58.83605957 40.14257812 C58.84802846 44.32040595 58.85174077 48.49815111 58.85055542 52.67599487 C58.85035221 58.02144349 58.87765844 63.36636059 58.91209984 68.71168327 C58.93436963 72.82959412 58.93839294 76.94737705 58.93733597 81.06534195 C58.93969164 83.03566444 58.94851327 85.00599048 58.9640007 86.97625351 C58.98366296 89.73591787 58.97782186 92.49443587 58.96578979 95.25411987 C58.97702881 96.06266418 58.98826782 96.8712085 58.99984741 97.70425415 C58.93767476 103.33434973 57.68681837 106.58245443 54.47994995 111.23117065 C50.23076644 115.1694383 47.1358314 116.35150796 41.41407776 116.37834167 C39.84324432 116.38907463 39.84324432 116.38907463 38.24067688 116.40002441 C36.51773155 116.40405777 36.51773155 116.40405777 34.75997925 116.40817261 C32.94498428 116.4180294 32.94498428 116.4180294 31.09332275 116.42808533 C27.0802689 116.44783225 23.067255 116.45948501 19.0541687 116.4694519 C17.67151177 116.47350024 16.28885503 116.47761719 14.9061985 116.48180199 C8.41033505 116.50084797 1.91448292 116.51508062 -4.58140308 116.52341396 C-12.07510337 116.53318665 -19.5685083 116.55950913 -27.06210452 116.59991485 C-32.85754244 116.63008981 -38.65289575 116.64488409 -44.44841069 116.64819497 C-47.90836556 116.65054378 -51.36800467 116.65948162 -54.82787514 116.68465614 C-58.68931121 116.71229929 -62.55035949 116.70810147 -66.41189575 116.70114136 C-67.55445328 116.71395142 -68.6970108 116.72676147 -69.87419128 116.73995972 C-76.08059322 116.69913669 -79.82054754 116.42570623 -84.52005005 112.23117065 C-88.42764481 107.91225013 -89.25923803 104.22434105 -89.0473938 98.5553894 C-88.18969009 94.77513973 -85.58039154 93.39141171 -82.52005005 91.23117065 C-77.04187036 82.62260258 -77.18038253 72.60928005 -77.20755005 62.73117065 C-77.19143677 61.55941284 -77.17532349 60.38765503 -77.15872192 59.1803894 C-77.15309521 49.15358067 -78.38982715 41.53530143 -85.52005005 34.23117065 C-86.57192505 33.6607605 -86.57192505 33.6607605 -87.64505005 33.0788269 C-90.09343639 30.6661462 -90.06469935 28.67439032 -90.1267395 25.3276062 C-90.11215698 24.57390747 -90.09757446 23.82020874 -90.08255005 23.04367065 C-90.07376831 22.27643677 -90.06498657 21.50920288 -90.05593872 20.71871948 C-89.84240176 14.80456459 -88.80221606 10.53660931 -84.52005005 6.23117065 C-79.68399902 1.84498484 -77.03513135 1.09559028 -70.5552063 0.9147644 C-69.80713211 0.89380203 -69.05905792 0.87283966 -68.28831482 0.85124207 C-65.71984991 0.78313412 -63.15130533 0.72473233 -60.58255005 0.66867065 C-59.2396994 0.63839783 -59.2396994 0.63839783 -57.86972046 0.60751343 C-38.582812 0.19002433 -19.29090252 0.06158637 0 0 Z " fill="#96E3E7" transform="translate(430.5200500488281,223.76882934570313)" data-index="2" style="opacity: 1;"></path>
<path d="M0 0 C16.3514346 -0.11712134 32.70273185 -0.20512836 49.05448532 -0.25906086 C56.64795761 -0.28477517 64.24116833 -0.31979476 71.83447266 -0.37719727 C78.45756793 -0.42724123 85.08047365 -0.45934017 91.70375276 -0.47044247 C95.20652646 -0.47692609 98.70875819 -0.49201954 102.21135712 -0.52865028 C106.13416733 -0.56933783 110.05646117 -0.56993605 113.97949219 -0.56762695 C115.12389267 -0.58560333 116.26829315 -0.60357971 117.44737244 -0.62210083 C126.90343005 -0.56220321 135.86853256 1.71711084 143 8.25 C149.26563775 15.32990783 150.58949475 22.73275188 150.45410156 31.93579102 C150.45468567 32.99049088 150.45526978 34.04519073 150.45587158 35.1318512 C150.45310311 38.58954729 150.42206871 42.04636228 150.390625 45.50390625 C150.38315824 47.91242502 150.37746736 50.32094989 150.37347412 52.72947693 C150.35825224 59.04738339 150.31899967 65.36491798 150.2746582 71.68267822 C150.23363135 78.13801036 150.21544726 84.59340299 150.1953125 91.04882812 C150.15250246 103.69937676 150.08506904 116.34966853 150 129 C148.92542038 128.46464378 148.92542038 128.46464378 147.82913208 127.91847229 C142.53208275 125.37658061 138.29716605 123.35220476 132.3046875 123.65234375 C130.51309204 123.70757202 130.51309204 123.70757202 128.68530273 123.76391602 C126.79920288 123.84984009 126.79920288 123.84984009 124.875 123.9375 C109.21870376 124.38009859 94.20860252 122.59732882 78.72607422 120.44970703 C73.86120526 119.86255668 68.99932398 119.57041537 64.10571289 119.34155273 C60.20982379 118.91309987 56.36312016 118.33494196 53.48828125 115.51953125 C53.10027344 114.95621094 52.71226562 114.39289063 52.3125 113.8125 C49.07052221 109.6957028 45.15250689 107.3317736 40.68359375 104.67578125 C33.98097706 100.49030446 31.3088519 96.41532367 27.875 89.4375 C26.91618963 87.54773537 25.95386198 85.65975177 24.98828125 83.7734375 C24.4979541 82.8153418 24.00762695 81.85724609 23.50244141 80.87011719 C21.14340813 76.36365064 18.62106645 71.9579971 16.0625 67.5625 C15.61438965 66.78898193 15.1662793 66.01546387 14.70458984 65.21850586 C12.79599879 61.95316646 10.87954176 58.83204564 8.671875 55.75390625 C6.87073674 52.78707805 6.59077341 51.71903215 7.1875 48.375 C7.30480469 47.64023437 7.42210937 46.90546875 7.54296875 46.1484375 C7.82813694 44.80790325 8.1464348 43.47348895 8.51367188 42.15307617 C11.47315469 29.05082768 9.47556479 15.09518495 2.41479492 3.84692383 C1.96303391 3.1265242 1.51127289 2.40612457 1.04582214 1.66389465 C0.70070084 1.11480942 0.35557953 0.56572418 0 0 Z " fill="#96E3E6" transform="translate(365,384)" data-index="3" style="opacity: 1;"></path>
<path d="M0 0 C12.30212789 9.18310355 20.12396509 22.06021711 23.31689453 37.13793945 C25.82025031 54.7130455 22.37419503 71.71166139 12.19189453 86.38793945 C2.68193995 98.71369064 -9.75278922 106.52710282 -25.05810547 109.63793945 C-26.15123047 109.86481445 -27.24435547 110.09168945 -28.37060547 110.32543945 C-46.97816019 111.90235087 -64.56612254 108.78283575 -79.49169922 97.0559082 C-90.95618662 87.3819812 -97.44126675 75.36917023 -100.05810547 60.63793945 C-101.58969293 40.52567579 -99.22952474 23.80702571 -85.80810547 7.9855957 C-64.1135001 -15.1344565 -25.86745076 -18.26003156 0 0 Z " fill="#024B6D" transform="translate(416.05810546875,737.362060546875)" data-index="4" style="opacity: 1; visibility: visible;"></path>
<path d="M0 0 C1.08558197 -0.00960754 2.17116394 -0.01921509 3.28964233 -0.02911377 C4.47490509 -0.03336365 5.66016785 -0.03761353 6.88134766 -0.04199219 C8.09682281 -0.04769226 9.31229797 -0.05339233 10.56460571 -0.05926514 C13.14885584 -0.06873845 15.73311818 -0.07525831 18.31738281 -0.07910156 C22.24387325 -0.08874067 26.16982548 -0.11971491 30.09619141 -0.15136719 C32.60790705 -0.15790368 35.11962644 -0.1631516 37.63134766 -0.16699219 C38.7963681 -0.17933899 39.96138855 -0.19168579 41.16171265 -0.20440674 C53.7063343 -0.17070561 65.76365756 2.734476 75.25244141 11.33300781 C82.98295589 19.80579652 85.39625911 28.87765015 85.17041016 40.07128906 C84.26184606 51.30057349 79.81859423 59.88611866 71.76806641 67.61816406 C69.00727608 69.92368664 66.120567 71.52839973 62.92041016 73.16113281 C64.17023312 77.34258751 65.69545718 80.69570524 68.11572266 84.32128906 C68.74599365 85.27422852 69.37626465 86.22716797 70.02563477 87.20898438 C70.69216064 88.20381836 71.35868652 89.19865234 72.04541016 90.22363281 C73.40452862 92.28153643 74.76260856 94.34012631 76.11962891 96.39941406 C76.77366699 97.38893066 77.42770508 98.37844727 78.1015625 99.39794922 C80.39268543 102.87861088 82.65077498 106.37667003 84.85791016 109.91113281 C85.46505859 110.87535156 86.07220703 111.83957031 86.69775391 112.83300781 C87.92041016 115.16113281 87.92041016 115.16113281 87.92041016 118.16113281 C83.73439479 118.45304462 79.55099804 118.62959086 75.35791016 118.78613281 C74.17648437 118.86992188 72.99505859 118.95371094 71.77783203 119.04003906 C63.18547478 119.28072134 63.18547478 119.28072134 59.72729492 116.22021484 C57.8886417 113.61884792 56.39437022 110.98356748 54.92041016 108.16113281 C53.92425467 106.58256769 52.91554402 105.01183968 51.89306641 103.45019531 C50.92293354 101.89555822 49.95288249 100.34087007 48.98291016 98.78613281 C48.45842285 97.96902832 47.93393555 97.15192383 47.39355469 96.31005859 C45.08641724 92.70768609 42.85693444 89.16008529 41.00244141 85.30175781 C39.19219416 81.83867612 37.89022604 79.71042691 34.92041016 77.16113281 C31.83332875 76.43046703 28.80979918 76.38279962 25.64697266 76.35644531 C24.38880737 76.31789429 24.38880737 76.31789429 23.10522461 76.27856445 C21.0441256 76.2184185 18.98222502 76.18694208 16.92041016 76.16113281 C16.92826538 78.01629517 16.92826538 78.01629517 16.9362793 79.90893555 C16.95432577 84.48038006 16.96584086 89.0518214 16.9753418 93.62329102 C16.98038283 95.60506723 16.98721554 97.5868397 16.99584961 99.56860352 C17.0079253 102.4106539 17.01364061 105.25265529 17.01806641 108.09472656 C17.02322769 108.98639023 17.02838898 109.87805389 17.03370667 110.79673767 C17.03390192 112.91853883 16.98251046 115.04024061 16.92041016 117.16113281 C15.29840501 118.78313796 13.50017985 118.29104031 11.26416016 118.29394531 C9.85457031 118.29587891 9.85457031 118.29587891 8.41650391 118.29785156 C6.9334375 118.29205078 6.9334375 118.29205078 5.42041016 118.28613281 C4.43169922 118.29 3.44298828 118.29386719 2.42431641 118.29785156 C1.48458984 118.2965625 0.54486328 118.29527344 -0.42333984 118.29394531 C-1.29152344 118.29281738 -2.15970703 118.29168945 -3.05419922 118.29052734 C-5.07958984 118.16113281 -5.07958984 118.16113281 -6.07958984 117.16113281 C-6.1775068 115.65794577 -6.20590783 114.15017148 -6.20657349 112.64379883 C-6.21080322 111.17984177 -6.21080322 111.17984177 -6.21511841 109.68630981 C-6.21309418 108.60679047 -6.21106995 107.52727112 -6.20898438 106.41503906 C-6.21073669 105.28508514 -6.21248901 104.15513123 -6.21429443 102.99093628 C-6.21871566 99.23515309 -6.215774 95.47941653 -6.21240234 91.72363281 C-6.2130753 89.12670889 -6.21404526 86.52978503 -6.21530151 83.93286133 C-6.21677885 78.48192693 -6.21471736 73.03101024 -6.20996094 67.58007812 C-6.20451835 61.26974052 -6.20628102 54.95943522 -6.21178734 48.6490984 C-6.21686416 42.58945581 -6.21633693 36.52982909 -6.21340561 30.47018433 C-6.21273607 27.88646439 -6.21356569 25.30274364 -6.21588516 22.71902466 C-6.21841009 19.11506938 -6.21457334 15.51117712 -6.20898438 11.90722656 C-6.21100861 10.82770721 -6.21303284 9.74818787 -6.21511841 8.63595581 C-6.21229858 7.65998444 -6.20947876 6.68401306 -6.20657349 5.6784668 C-6.20619646 4.82526352 -6.20581944 3.97206024 -6.20543098 3.09300232 C-5.94884 -0.84609346 -3.36134634 0.02392166 0 0 Z " fill="#014A6C" transform="translate(211.07958984375,727.8388671875)" data-index="5" style="opacity: 1;"></path>
<path d="M0 0 C1.01513672 -0.03287109 2.03027344 -0.06574219 3.07617188 -0.09960938 C4.05005859 -0.10669922 5.02394531 -0.11378906 6.02734375 -0.12109375 C6.9205835 -0.13454834 7.81382324 -0.14800293 8.73413086 -0.16186523 C11.0625 0.4375 11.0625 0.4375 12.6730957 2.50366211 C14.30552832 5.95067367 15.86041178 9.41793576 17.328125 12.9375 C17.63809418 13.67289001 17.94806335 14.40828003 18.26742554 15.16595459 C19.28662529 17.58807362 20.29980887 20.01265321 21.3125 22.4375 C22.02907967 24.14618169 22.74571466 25.85484018 23.46240234 27.56347656 C28.91378797 40.58468786 34.25301712 53.65038842 39.52270508 66.74609375 C42.67080468 74.56533201 45.85479468 82.36665322 49.11328125 90.140625 C49.77205698 91.71773822 50.43074972 93.2948861 51.08935547 94.87207031 C52.0338457 97.13326958 52.98113041 99.39304105 53.9385376 101.64880371 C54.80919587 103.70022251 55.66920729 105.75581858 56.52734375 107.8125 C57.018396 108.97523438 57.50944824 110.13796875 58.01538086 111.3359375 C59.00986667 114.2816003 59.29602403 116.36318669 59.0625 119.4375 C55.29192453 119.55347653 51.52180607 119.62467396 47.75 119.6875 C46.67814453 119.72101563 45.60628906 119.75453125 44.50195312 119.7890625 C42.95991211 119.80839844 42.95991211 119.80839844 41.38671875 119.828125 C40.43885498 119.84907227 39.49099121 119.87001953 38.5144043 119.89160156 C36.0625 119.4375 36.0625 119.4375 34.35742188 117.70654297 C33.05330331 115.42138498 31.99076982 113.18730816 31.01953125 110.7421875 C30.49262695 109.42154297 30.49262695 109.42154297 29.95507812 108.07421875 C29.59865234 107.16285156 29.24222656 106.25148438 28.875 105.3125 C28.32295898 103.93384766 28.32295898 103.93384766 27.75976562 102.52734375 C25.0625 95.71161874 25.0625 95.71161874 25.0625 93.4375 C8.8925 93.7675 -7.2775 94.0975 -23.9375 94.4375 C-27.22317009 102.31329584 -27.22317009 102.31329584 -30.484375 110.19921875 C-30.88140625 111.16472656 -31.2784375 112.13023437 -31.6875 113.125 C-32.09484375 114.11886719 -32.5021875 115.11273437 -32.921875 116.13671875 C-33.9375 118.4375 -33.9375 118.4375 -34.9375 119.4375 C-36.64522358 119.52463831 -38.35648649 119.54450007 -40.06640625 119.53515625 C-41.61811523 119.53032227 -41.61811523 119.53032227 -43.20117188 119.52539062 C-44.28978516 119.51701172 -45.37839844 119.50863281 -46.5 119.5 C-48.1387207 119.49323242 -48.1387207 119.49323242 -49.81054688 119.48632812 C-52.51958495 119.47449826 -55.22851599 119.45801543 -57.9375 119.4375 C-59.29955066 115.74420573 -58.56385113 113.74330826 -57.078125 110.171875 C-56.63146484 109.07866943 -56.18480469 107.98546387 -55.72460938 106.85913086 C-55.21736328 105.64749268 -54.71011719 104.43585449 -54.1875 103.1875 C-53.36908618 101.19615108 -52.55506037 99.20304191 -51.74121094 97.20982361 C-51.14153091 95.74159747 -50.54057157 94.27389334 -49.93847656 92.80665588 C-46.08952165 83.41130751 -42.39132168 73.956386 -38.67224121 64.50909424 C-32.85329961 49.73910747 -27.00656594 34.98177269 -20.9375 20.3125 C-20.46376953 19.16515381 -19.99003906 18.01780762 -19.50195312 16.83569336 C-12.51969448 0.07126961 -12.51969448 0.07126961 0 0 Z " fill="#024B6D" transform="translate(766.9375,726.5625)" data-index="6" style="opacity: 1;"></path>
<path d="M0 0 C2.24289808 2.11902604 3.97815092 4.28641882 5.6796875 6.85717773 C6.19031738 7.6248497 6.70094727 8.39252167 7.22705078 9.18345642 C7.77087402 10.00850174 8.31469727 10.83354706 8.875 11.68359375 C9.4407373 12.53550797 10.00647461 13.38742218 10.58935547 14.26515198 C12.39619182 16.98710421 14.19831358 19.71213684 16 22.4375 C17.80247197 25.15876138 19.60593366 27.87935927 21.41064453 30.59913635 C22.53289584 32.29097375 23.65372058 33.9837585 24.77294922 35.67759705 C25.2835791 36.44842117 25.79420898 37.2192453 26.3203125 38.01342773 C26.76648926 38.68832748 27.21266602 39.36322723 27.67236328 40.05857849 C28.6074 41.42589559 29.59196689 42.75998373 30.60986328 44.06678772 C32.45765872 46.63644924 32.97508105 49.12803225 33.75 52.1875 C36.69408036 62.22670123 42.45084743 68.71161329 51.375 74 C73.70824842 84.54854538 101.9023733 84.91070121 126 87 C128.36200785 87.209312 130.72398834 87.41893303 133.0859375 87.62890625 C138.38969535 88.09733947 143.6943908 88.55304581 149 89 C149 89.66 149 90.32 149 91 C147.77734375 92.19921875 147.77734375 92.19921875 145.9375 93.6875 C140.6841737 98.12679736 135.91928807 103.0286969 131.10522461 107.93237305 C130.47495361 108.57086182 129.84468262 109.20935059 129.1953125 109.8671875 C128.62828613 110.44581543 128.06125977 111.02444336 127.47705078 111.62060547 C124.98659005 113.94640764 123.24260175 114.12810309 119.94100952 114.14717102 C119.09157776 114.15432632 118.242146 114.16148163 117.36697388 114.16885376 C115.96594925 114.17288712 115.96594925 114.17288712 114.53662109 114.17700195 C113.55431519 114.18357315 112.57200928 114.19014435 111.55993652 114.19691467 C108.29776946 114.21668018 105.03564855 114.22831917 101.7734375 114.23828125 C100.65993549 114.24235678 99.54643349 114.2464323 98.399189 114.25063133 C92.50261876 114.2715086 86.60607189 114.28580164 80.70947266 114.29516602 C74.62310712 114.30621776 68.53710846 114.340599 62.45087242 114.38033772 C57.76847666 114.40651006 53.08616807 114.41485856 48.4037056 114.41844749 C46.16067662 114.42331392 43.91765156 114.43492944 41.67469406 114.45348549 C38.52941815 114.47788325 35.38508805 114.47691008 32.23974609 114.4699707 C31.31787506 114.48278076 30.39600403 114.49559082 29.44619751 114.50878906 C21.03334688 114.44135991 14.8019413 111.37144693 8.6015625 105.765625 C1.69000511 98.14605441 -0.3168458 89.0887845 -0.22705078 79.12719727 C-0.22734283 78.26786087 -0.22763489 77.40852448 -0.22793579 76.52314758 C-0.22655086 73.70412837 -0.21102931 70.88537886 -0.1953125 68.06640625 C-0.19157939 66.10343063 -0.18873383 64.14045313 -0.18673706 62.17747498 C-0.17912407 57.02689411 -0.15949569 51.87642717 -0.1373291 46.72589111 C-0.11682031 41.46376079 -0.1077246 36.20161195 -0.09765625 30.93945312 C-0.07624754 20.6262522 -0.04213987 10.3131356 0 0 Z " fill="#96E4E7" transform="translate(320,480)" data-index="7" style="opacity: 1;"></path>
<path d="M0 0 C1.59110596 0.01244751 1.59110596 0.01244751 3.21435547 0.02514648 C16.49567328 0.31025346 29.17390192 4.00089572 40.3125 11.4375 C41.31867324 13.81733736 41.51655506 14.92334708 40.55566406 17.34448242 C39.94803223 18.30898315 39.94803223 18.30898315 39.328125 19.29296875 C38.66683594 20.34967773 38.66683594 20.34967773 37.9921875 21.42773438 C37.52039063 22.15283203 37.04859375 22.87792969 36.5625 23.625 C36.10617187 24.36169922 35.64984375 25.09839844 35.1796875 25.85742188 C31.71213264 31.30428912 31.71213264 31.30428912 28.3125 32.4375 C26.4375 31.36328125 26.4375 31.36328125 24.3125 29.75 C15.9744224 23.89154679 5.57647815 20.39787054 -4.6875 21.4375 C-8.9311372 22.41561602 -11.9372271 23.76225439 -15.1875 26.6875 C-17.14001513 30.26711106 -17.2625699 32.41201071 -16.6875 36.4375 C-12.90560373 43.21339749 -5.43458794 45.32465216 1.61328125 47.3671875 C5.11679474 48.3512539 8.62552442 49.31264167 12.13867188 50.26171875 C24.90575822 53.86434795 36.96769539 59.04480773 43.75 70.9375 C47.94078559 79.96897911 47.62469587 89.86535289 44.3515625 99.1953125 C39.82122541 108.97130306 31.94176717 115.27271514 22.1953125 119.40234375 C5.48755993 125.40174 -13.96266006 123.04048025 -29.92578125 115.83203125 C-42.8172584 109.32247348 -42.8172584 109.32247348 -45.6875 105.4375 C-45.23223253 102.2982052 -44.0679658 100.27812107 -42.18359375 97.765625 C-41.69052734 97.10175781 -41.19746094 96.43789063 -40.68945312 95.75390625 C-39.91504883 94.73103516 -39.91504883 94.73103516 -39.125 93.6875 C-38.60486328 92.99011719 -38.08472656 92.29273438 -37.54882812 91.57421875 C-36.26735819 89.85775444 -34.97817202 88.14705569 -33.6875 86.4375 C-30.08658872 87.22691598 -27.91040934 88.53925372 -24.9375 90.75 C-14.57919596 98.16180699 -4.58693735 101.79355123 8.3125 100.4375 C13.21075623 99.15652957 16.4177887 97.39767798 19.875 93.6875 C21.77579291 89.39005516 21.90685407 87.11803828 21.3125 82.4375 C15.53293144 73.73538316 4.39499228 72.13871682 -5.125 69.5625 C-18.33665315 65.95996028 -31.47592247 60.83711594 -38.65234375 48.46875 C-42.67422067 40.57676509 -42.83353246 32.28974192 -40.25 23.9375 C-36.30004802 14.0835562 -28.37971684 6.76266578 -18.73901367 2.59521484 C-12.45756224 0.29233686 -6.65391733 -0.06712053 0 0 Z " fill="#024A6D" transform="translate(500.6875,725.5625)" data-index="8" style="opacity: 1;"></path>

<path d="M0 0 C1.32237419 0.00067978 1.32237419 0.00067978 2.67146301 0.00137329 C4.05674698 -0.00366463 4.05674698 -0.00366463 5.47001648 -0.00880432 C8.53921331 -0.01834503 11.60835577 -0.02025898 14.67756653 -0.02133179 C16.80126977 -0.02454216 18.92497278 -0.02790606 21.04867554 -0.03141785 C25.50676486 -0.0374169 29.96483478 -0.03925695 34.42292786 -0.03866577 C40.14771516 -0.0385641 45.87237858 -0.05221853 51.5971365 -0.06943798 C55.98505225 -0.08053264 60.37293782 -0.08258576 64.76086617 -0.08205605 C66.87207021 -0.08323991 68.98327494 -0.08768427 71.09446526 -0.09538841 C74.04209554 -0.10513748 76.98945376 -0.10233049 79.93708801 -0.09628296 C80.81664658 -0.10190247 81.69620514 -0.10752197 82.60241699 -0.11331177 C88.64065756 -0.08167826 88.64065756 -0.08167826 90.86897278 2.14663696 C91.1118927 4.10195923 91.1118927 4.10195923 91.09944153 6.46304321 C91.09750793 7.30931274 91.09557434 8.15558228 91.09358215 9.02749634 C91.08133606 9.91243774 91.06908997 10.79737915 91.05647278 11.70913696 C91.05550598 13.04234985 91.05550598 13.04234985 91.05451965 14.40249634 C91.00918375 21.00642599 91.00918375 21.00642599 89.86897278 22.14663696 C87.20271247 22.23518857 84.56250163 22.2618837 81.89631653 22.24429321 C81.09867386 22.24287827 80.30103119 22.24146332 79.47921753 22.24000549 C76.92159842 22.23439013 74.3640656 22.22183508 71.80647278 22.20913696 C70.07665633 22.20412394 68.34683852 22.19956069 66.61701965 22.19546509 C62.36763725 22.18441571 58.11831966 22.16714083 53.86897278 22.14663696 C53.87119339 23.34711166 53.873414 24.54758636 53.8757019 25.78443909 C53.8959316 37.07140992 53.91094408 48.35837709 53.92078495 59.6453619 C53.92601422 65.44877309 53.93311265 71.25216971 53.94441223 77.05557251 C53.95523956 82.65114549 53.96124928 88.24670442 53.96385002 93.84228706 C53.96570455 95.9822264 53.96932569 98.12216493 53.97470284 100.26209831 C53.98191122 103.24828662 53.98296381 106.23441603 53.98249817 109.22061157 C53.98609344 110.11468719 53.98968872 111.00876282 53.99339294 111.92993164 C53.98302494 118.0325848 53.98302494 118.0325848 52.86897278 119.14663696 C51.24639733 119.24580267 49.61957447 119.27743473 47.99397278 119.27944946 C47.00912903 119.28073853 46.02428528 119.28202759 45.00959778 119.28335571 C43.97319153 119.27948853 42.93678528 119.27562134 41.86897278 119.27163696 C40.3143634 119.27743774 40.3143634 119.27743774 38.72834778 119.28335571 C37.74350403 119.28206665 36.75866028 119.28077759 35.74397278 119.27944946 C34.83389465 119.27832153 33.92381653 119.2771936 32.98616028 119.27603149 C30.86897278 119.14663696 30.86897278 119.14663696 29.86897278 118.14663696 C29.77369058 115.16365483 29.74345103 112.20387351 29.75544739 109.22061157 C29.75530136 108.28412277 29.75515533 107.34763397 29.75500488 106.38276672 C29.75570441 103.27148157 29.76349863 100.16025547 29.77131653 97.04898071 C29.77318057 94.89806654 29.77460454 92.74715194 29.77560425 90.59623718 C29.77943053 84.92281939 29.78926176 79.24942701 29.80030823 73.57601929 C29.81051998 67.7916193 29.81510136 62.00721523 29.82014465 56.22280884 C29.83088393 44.86407368 29.84796167 33.50535743 29.86897278 22.14663696 C28.24100769 22.15449219 28.24100769 22.15449219 26.58015442 22.1625061 C22.56779296 22.18055532 18.55543511 22.19206867 14.54304504 22.2015686 C12.8037811 22.20660901 11.06452142 22.21344126 9.32527161 22.22207642 C6.83071341 22.23415488 4.33621104 22.23986805 1.84162903 22.24429321 C1.05933426 22.2494545 0.27703949 22.25461578 -0.52896118 22.25993347 C-2.39669836 22.26012922 -4.26431926 22.20863391 -6.13102722 22.14663696 C-7.72040278 20.5572614 -7.26083865 18.90763851 -7.26383972 16.70913696 C-7.26512878 15.81452759 -7.26641785 14.91991821 -7.26774597 13.99819946 C-7.26194519 12.58667603 -7.26194519 12.58667603 -7.25602722 11.14663696 C-7.25989441 10.20562134 -7.2637616 9.26460571 -7.26774597 8.29507446 C-7.26645691 7.40046509 -7.26516785 6.50585571 -7.26383972 5.58413696 C-7.26214783 4.34470337 -7.26214783 4.34470337 -7.26042175 3.08023071 C-6.97145548 -1.23790687 -3.54997874 0.01897725 0 0 Z " fill="#014B6D" transform="translate(622.1310272216797,726.8533630371094)" data-index="9" style="opacity: 1;"></path>
<path d="M0 0 C1.96718994 -0.01902626 1.96718994 -0.01902626 3.97412109 -0.03843689 C5.40722816 -0.0363856 6.84033415 -0.0333977 8.2734375 -0.02954102 C9.74170168 -0.0341013 11.20996373 -0.03940641 12.67822266 -0.04542542 C15.75497105 -0.0543612 18.83145993 -0.05192789 21.90820312 -0.04199219 C25.85296784 -0.03049527 29.79683838 -0.05072144 33.7414856 -0.07990932 C36.77325131 -0.09824554 39.80480165 -0.09798424 42.83660889 -0.0922718 C44.29108943 -0.0921183 45.74558432 -0.09818636 47.20001221 -0.11056328 C49.23225004 -0.12542167 51.26463484 -0.11219298 53.296875 -0.09765625 C54.45364746 -0.09749008 55.61041992 -0.09732391 56.80224609 -0.09715271 C59.6484375 0.40405273 59.6484375 0.40405273 61.5221405 2.19970703 C63.25537541 5.59192857 63.05605335 8.9915214 63.01171875 12.71264648 C63.01246651 13.91824974 63.01246651 13.91824974 63.01322937 15.14820862 C63.01089271 16.8452502 63.00118821 18.54229551 62.98461914 20.23925781 C62.96105162 22.82901209 62.96405811 25.41773423 62.97070312 28.00756836 C62.96512499 29.65926717 62.95801426 31.31096167 62.94921875 32.96264648 C62.95013016 33.73362167 62.95104156 34.50459686 62.95198059 35.29893494 C62.89806511 39.41374271 62.70651491 42.79354096 60.6484375 46.40405273 C57.35323979 49.54451937 54.93722867 49.78253 50.45874023 49.79223633 C49.20741806 49.80169281 47.95609589 49.81114929 46.66685486 49.82089233 C45.30524376 49.81552305 43.94363555 49.8093702 42.58203125 49.80249023 C41.18245797 49.80451179 39.78288572 49.80742392 38.38331604 49.81118774 C35.45376532 49.81560584 32.52448943 49.80919599 29.5949707 49.79516602 C25.83979946 49.77805817 22.08527073 49.78792802 18.33012295 49.80588341 C15.44162653 49.8167219 12.55328257 49.81327497 9.66478157 49.80550003 C8.28009019 49.803499 6.89538497 49.80595391 5.51070976 49.81293869 C3.57672261 49.82055503 1.64268689 49.80688844 -0.29125977 49.79223633 C-1.94195213 49.78865616 -1.94195213 49.78865616 -3.62599182 49.78500366 C-6.3515625 49.40405273 -6.3515625 49.40405273 -8.20606995 48.14480591 C-9.62316506 45.99131062 -9.73155109 44.73269124 -9.73974609 42.16381836 C-9.74920258 41.31283569 -9.75865906 40.46185303 -9.7684021 39.58508301 C-9.76232941 38.66940552 -9.75625671 37.75372803 -9.75 36.81030273 C-9.75287018 35.86723267 -9.75574036 34.9241626 -9.75869751 33.95251465 C-9.76073896 31.95865275 -9.75520343 29.96477086 -9.74267578 27.97094727 C-9.72662339 24.91564229 -9.74252183 21.86166022 -9.76171875 18.80639648 C-9.75973633 16.87019564 -9.75589269 14.93399562 -9.75 12.99780273 C-9.75607269 12.08212524 -9.76214539 11.16644775 -9.7684021 10.22302246 C-9.75894562 9.37203979 -9.74948914 8.52105713 -9.73974609 7.64428711 C-9.73735931 6.89610718 -9.73497253 6.14792725 -9.73251343 5.3770752 C-9.3515625 3.40405273 -9.3515625 3.40405273 -8.22427368 1.66429138 C-5.47573009 -0.18533759 -3.2941409 0.01538608 0 0 Z " fill="#024A6C" transform="translate(422.3515625,418.595947265625)" data-index="10" style="opacity: 1;"></path>
<path d="M0 0 C5.48567157 4.2432354 9.2777289 9.22368336 11 16 C12.24939937 27.31558297 10.18894162 37.99981854 3 47 C-3.02292548 53.56327547 -8.72829332 56.4844155 -17.5546875 57.34765625 C-27.20636976 57.72634398 -34.06903936 56.51723278 -41.28125 49.91015625 C-48.93188148 41.80215006 -50.60568347 35.79325165 -50.34375 24.7265625 C-49.51974732 15.79362437 -45.6932988 8.92980464 -39 3 C-26.9143652 -5.74362646 -12.90134461 -8.83194302 0 0 Z " fill="#3BB9E5" transform="translate(350,389)" data-index="11" style="opacity: 1;"></path>
<path d="M0 0 C0.93199219 -0.00257813 1.86398437 -0.00515625 2.82421875 -0.0078125 C3.80003906 -0.00007812 4.77585937 0.00765625 5.78125 0.015625 C6.75707031 0.00789062 7.73289062 0.00015625 8.73828125 -0.0078125 C9.67027344 -0.00523437 10.60226562 -0.00265625 11.5625 0 C12.41908203 0.00225586 13.27566406 0.00451172 14.15820312 0.00683594 C16.28125 0.265625 16.28125 0.265625 18.28125 2.265625 C18.53572559 4.26531029 18.53572559 4.26531029 18.54194641 6.76913452 C18.54903122 7.71690262 18.55611603 8.66467072 18.56341553 9.64115906 C18.56093811 10.68431778 18.55846069 11.7274765 18.5559082 12.80224609 C18.5635746 14.44627663 18.5635746 14.44627663 18.57139587 16.1235199 C18.58534448 19.762089 18.584331 23.40046977 18.58203125 27.0390625 C18.58591556 29.56011018 18.59024967 32.0811572 18.59501648 34.60220337 C18.60249024 39.89335518 18.60231686 45.18443738 18.59692383 50.47558594 C18.59088631 56.59112675 18.6031871 62.70643735 18.6244939 68.82193887 C18.64423317 74.70378009 18.6472836 80.58554997 18.64375877 86.4674263 C18.64427314 88.9705217 18.64953242 91.47362069 18.65957069 93.97669601 C18.6718754 97.47471706 18.66517862 100.97220269 18.65356445 104.47021484 C18.66503006 106.02888023 18.66503006 106.02888023 18.67672729 107.61903381 C18.66971298 108.57244156 18.66269867 109.5258493 18.6554718 110.50814819 C18.65563954 111.33516424 18.65580729 112.16218029 18.65598011 113.01425743 C18.18959863 115.81626376 17.20623413 117.20419605 15.28125 119.265625 C13.02880859 119.7355957 13.02880859 119.7355957 10.4296875 119.69140625 C9.02976562 119.67883789 9.02976562 119.67883789 7.6015625 119.66601562 C6.62960937 119.63701172 5.65765625 119.60800781 4.65625 119.578125 C3.18671875 119.56362305 3.18671875 119.56362305 1.6875 119.54882812 C-5.55083898 119.43353602 -5.55083898 119.43353602 -6.71875 118.265625 C-6.81883034 116.76476263 -6.84950376 115.25921267 -6.85246277 113.75502014 C-6.85672775 112.78049393 -6.86099274 111.80596771 -6.86538696 110.8019104 C-6.86493378 109.7239621 -6.86448059 108.64601379 -6.86401367 107.53540039 C-6.86737228 106.40705276 -6.8707309 105.27870514 -6.87419128 104.11616516 C-6.88373429 100.36519283 -6.88564605 96.61426498 -6.88671875 92.86328125 C-6.88992892 90.26875286 -6.89329281 87.67422465 -6.89680481 85.07969666 C-6.90280442 79.63296004 -6.90468651 74.18624122 -6.90405273 68.73950195 C-6.90345178 62.43711206 -6.91400534 56.13480772 -6.9297964 49.83243948 C-6.94442749 43.7781354 -6.94804136 37.7238779 -6.94744301 31.66955376 C-6.94862726 29.08944792 -6.95307373 26.50934152 -6.96077538 23.9292469 C-6.97051894 20.32783943 -6.96771958 16.72665483 -6.96166992 13.12524414 C-6.96728943 12.04932007 -6.97290894 10.973396 -6.97869873 9.86486816 C-6.97450424 8.88752213 -6.97030975 7.91017609 -6.96598816 6.9032135 C-6.96653293 6.05093202 -6.96707769 5.19865053 -6.96763897 4.32054234 C-6.43770919 -0.05474958 -3.73920938 0.00984743 0 0 Z " fill="#044D6E" transform="translate(576.71875,726.734375)" data-index="12" style="opacity: 1;"></path>
<path d="M0 0 C1.64422345 -0.11063933 3.29077252 -0.18675121 4.9375 -0.25 C6.31228516 -0.31960937 6.31228516 -0.31960937 7.71484375 -0.390625 C16.01822411 0.59669728 21.78093527 4.93668269 27.4375 10.8125 C28.40236328 11.80165405 28.40236328 11.80165405 29.38671875 12.81079102 C39.78821383 23.76226515 46.59997935 35.97494638 52 50 C52.54140625 51.39025391 52.54140625 51.39025391 53.09375 52.80859375 C57.97645763 66.93679869 53.1798739 78.73542931 48 92 C36.38822592 90.39144255 26.34274957 83.39151153 18.890625 74.4765625 C17.13659996 72.04041662 15.5348496 69.57905056 14 67 C13.59007812 66.32066406 13.18015625 65.64132812 12.7578125 64.94140625 C8.19483084 56.66475703 7.80865763 47.69195113 7.6875 38.4375 C7.36865984 27.32903332 5.58309115 16.67978984 0.2734375 6.78125 C-1 4 -1 4 -0.6875 1.625 C-0.460625 1.08875 -0.23375 0.5525 0 0 Z " fill="#FC7649" transform="translate(600,223)" data-index="13" style="opacity: 1;"></path>

<path d="M0 0 C1.02624481 -0.0112793 2.05248962 -0.02255859 3.10983276 -0.03417969 C4.22995758 -0.02608276 5.3500824 -0.01798584 6.50415039 -0.00964355 C8.28029221 -0.02015747 8.28029221 -0.02015747 10.09231567 -0.03088379 C13.33626653 -0.04547077 16.57956437 -0.04205452 19.8235054 -0.02936745 C23.21959039 -0.01923426 26.61563203 -0.028634 30.01171875 -0.03491211 C35.71467919 -0.04218764 41.41743236 -0.0326035 47.12036133 -0.0135498 C53.7120382 0.00821903 60.30322018 0.00116757 66.89488506 -0.02085543 C72.55617093 -0.03901233 78.21730789 -0.04156642 83.87861347 -0.03110075 C87.25907312 -0.0248673 90.63930021 -0.02402577 94.01974487 -0.0372467 C97.78832671 -0.04738208 101.55595244 -0.03195135 105.32446289 -0.00964355 C106.44458771 -0.01774048 107.56471252 -0.0258374 108.71878052 -0.03417969 C110.25814774 -0.01726074 110.25814774 -0.01726074 111.82861328 0 C113.16479454 0.00226215 113.16479454 0.00226215 114.52796936 0.00457001 C117.72419179 0.67876855 118.92713748 1.96114297 120.91430664 4.50793457 C121.64564992 10.46315845 121.64564992 10.46315845 119.60180664 13.38293457 C116.46865537 15.47170209 113.71980139 15.63713972 110.06948853 15.65510559 C108.57221474 15.66583855 108.57221474 15.66583855 107.04469299 15.67678833 C105.40354774 15.68082169 105.40354774 15.68082169 103.72924805 15.68493652 C101.99962578 15.69479332 101.99962578 15.69479332 100.23506165 15.70484924 C96.41199685 15.72459151 92.58897132 15.73624555 88.76586914 15.74621582 C86.81004473 15.75232911 86.81004473 15.75232911 84.81470871 15.7585659 C78.62799644 15.77760935 72.44129605 15.7918434 66.25456011 15.80017787 C59.1157165 15.80995428 51.97718262 15.83628743 44.83844817 15.87667876 C39.3181827 15.90684007 33.79800604 15.92164665 28.27765977 15.92495888 C24.98147258 15.92730897 21.68569236 15.93823621 18.38957596 15.96142006 C14.71218221 15.98568259 11.03560303 15.9848698 7.3581543 15.97790527 C6.26810593 15.99071533 5.17805756 16.00352539 4.05497742 16.01672363 C-0.45812717 15.98550478 -3.29119058 15.96029527 -7.26577759 13.6973114 C-9.08569336 11.50793457 -9.08569336 11.50793457 -9.64819336 8.00793457 C-8.70938375 2.16645255 -5.79792764 0.00981589 0 0 Z " fill="#01496B" transform="translate(494.085693359375,605.4920654296875)" data-index="14" style="opacity: 1;"></path>
<path d="M0 0 C1.65690857 -0.01292336 1.65690857 -0.01292336 3.34729004 -0.02610779 C6.99739025 -0.04880458 10.6467251 -0.04202195 14.296875 -0.03295898 C16.83366118 -0.03819265 19.37044541 -0.04446818 21.90722656 -0.05174255 C27.22341075 -0.06215352 32.53931708 -0.05790392 37.85546875 -0.04296875 C43.99565076 -0.02604137 50.13512216 -0.04189247 56.27522659 -0.07419163 C62.1896764 -0.1041218 68.10390539 -0.10606962 74.01843262 -0.09669304 C76.53186975 -0.09587214 79.04532155 -0.10276184 81.55871582 -0.11746407 C85.07092286 -0.13485967 88.58160469 -0.12040687 92.09375 -0.09765625 C93.13390259 -0.10934845 94.17405518 -0.12104065 95.24572754 -0.13308716 C99.98268954 -0.07057411 102.31040769 -0.0020892 106.22753906 2.84632874 C108.046875 5.53344727 108.046875 5.53344727 108.109375 9.15844727 C106.92901064 12.90783994 106.33631612 13.60345537 103.046875 15.53344727 C100.75144863 15.91097069 100.75144863 15.91097069 98.18223572 15.91439819 C97.20503067 15.92285767 96.22782562 15.93131714 95.2210083 15.94003296 C93.62262115 15.93092392 93.62262115 15.93092392 91.99194336 15.92163086 C90.86476395 15.92688782 89.73758453 15.93214478 88.57624817 15.93756104 C84.84626455 15.95077703 81.1167068 15.94201751 77.38671875 15.93188477 C74.79887307 15.93390489 72.21102794 15.93681581 69.6231842 15.94058228 C64.19851744 15.9450077 58.77401119 15.93885246 53.34936523 15.92456055 C47.07697452 15.90822603 40.80487623 15.91352888 34.53249258 15.93003976 C28.49790904 15.94528898 22.46346867 15.94368186 16.42886543 15.93489456 C13.8607536 15.93288932 11.29263433 15.93536312 8.72453117 15.94233322 C5.1402884 15.94992653 1.55661251 15.93837294 -2.02758789 15.92163086 C-3.09520355 15.92770355 -4.16281921 15.93377625 -5.26278687 15.94003296 C-6.7243647 15.92734375 -6.7243647 15.92734375 -8.21546936 15.91439819 C-9.0629326 15.91326712 -9.91039583 15.91213604 -10.78353977 15.91097069 C-13.48811887 15.44035449 -14.36292736 14.75081371 -15.953125 12.53344727 C-16.66092477 6.9595241 -16.66092477 6.9595241 -15.953125 4.53344727 C-11.39569018 -0.61765381 -6.39513978 -0.04012287 0 0 Z " fill="#044B6D" transform="translate(530.953125,578.466552734375)" data-index="15" style="opacity: 1;"></path>
<path d="M0 0 C0.18175781 1.11117188 0.36351562 2.22234375 0.55078125 3.3671875 C2.68775382 16.15448599 5.36050405 26.69781595 12 38 C8.878017 39.27833161 5.75188878 40.54622092 2.625 41.8125 C1.75488281 42.16892578 0.88476562 42.52535156 -0.01171875 42.89257812 C-20.33253336 51.09616624 -20.33253336 51.09616624 -29.19921875 48.30859375 C-34.07763969 46.15343182 -36.45953842 43.82303613 -39 39 C-40.4443354 31.56710287 -40.64695593 21.46734128 -36.875 14.75 C-29.10015194 5.54823865 -11.68677708 -0.43477593 0 0 Z " fill="#46C0DF" transform="translate(589,454)" data-index="16" style="opacity: 1;"></path>
<path d="M0 0 C1.12717941 -0.00540298 2.25435883 -0.01080597 3.41569519 -0.01637268 C7.14580446 -0.02889185 10.87514679 -0.01234779 14.60522461 0.00561523 C17.19306987 0.00546033 19.78091537 0.00397282 22.36875916 0.00120544 C27.79347848 -0.00017995 33.21791416 0.01197111 38.64257812 0.03515625 C44.9149799 0.06177899 51.18701185 0.06350859 57.45945078 0.05176789 C63.49404932 0.04099144 69.52847827 0.04727587 75.56307793 0.06132317 C78.13118538 0.06584829 80.69930372 0.06616526 83.26741219 0.06225777 C86.85168107 0.05935699 90.43533938 0.07579859 94.01953125 0.09765625 C95.08714691 0.0931546 96.15476257 0.08865295 97.25473022 0.08401489 C98.22911545 0.09391953 99.20350067 0.10382416 100.20741272 0.11402893 C101.47860757 0.11767377 101.47860757 0.11767377 102.77548313 0.12139225 C105.43264682 0.58717889 106.31862996 1.38809984 107.94506836 3.50170898 C108.34350586 5.43920898 108.34350586 5.43920898 108.32006836 7.50170898 C108.33166992 8.52264648 108.33166992 8.52264648 108.34350586 9.56420898 C107.81927889 12.11339113 106.97454598 12.89348556 104.94506836 14.50170898 C102.77548313 14.88481903 102.77548313 14.88481903 100.20741272 14.89611816 C98.74583488 14.91314285 98.74583488 14.91314285 97.25473022 14.93051147 C95.65330673 14.92611557 95.65330673 14.92611557 94.01953125 14.92163086 C92.33139061 14.93433517 92.33139061 14.93433517 90.60914612 14.94729614 C86.87855821 14.97074878 83.14838074 14.9716863 79.41772461 14.97045898 C76.83084445 14.9775555 74.24396588 14.98525374 71.65708923 14.99353027 C66.23065177 15.00699411 60.80437556 15.00871581 55.37792969 15.00268555 C49.10601185 14.99604398 42.83468201 15.0189115 36.56288344 15.05599928 C30.52881376 15.0903863 24.49505665 15.09703397 18.46087456 15.09291077 C15.89357184 15.09460751 13.32626176 15.10430287 10.75901985 15.12205505 C7.17220208 15.14412709 3.58681183 15.13460094 0 15.11694336 C-1.59838715 15.13683823 -1.59838715 15.13683823 -3.22906494 15.15713501 C-10.41412448 15.07472047 -10.41412448 15.07472047 -13.71461487 12.12341309 C-15.22021036 9.17841833 -15.72044431 7.74608327 -15.05493164 4.50170898 C-11.51816096 -1.0950608 -5.9234868 -0.053743 0 0 Z " fill="#004668" transform="translate(471.054931640625,633.498291015625)" data-index="17" style="opacity: 1;"></path>
<path d="M0 0 C13.06982753 -1.02508451 26.36074814 5.09105635 36.53515625 12.9609375 C47.66423514 23.23099658 55.35756393 38.90275241 56 54 C42.16805984 54.79799655 30.1109864 49.65554412 19.75 40.6875 C8.5162295 30.00562631 2.92845237 18.2136672 0 3 C0 2.01 0 1.02 0 0 Z " fill="#13A2B4" transform="translate(574,330)" data-index="18" style="opacity: 1;"></path>
<path d="M0 0 C0.54358154 1.04957886 0.54358154 1.04957886 1.09814453 2.12036133 C2.77255064 5.35170407 4.44876581 8.5821052 6.125 11.8125 C6.69476563 12.91271484 7.26453125 14.01292969 7.8515625 15.14648438 C11.11883551 21.43969772 14.44975304 27.6832394 17.92919922 33.86206055 C19 36 19 36 19 38 C18.01 38.37125 17.02 38.7425 16 39.125 C6.70293328 43.18664438 0.56412158 50.53300667 -6 58 C-6.66 58.66 -7.32 59.32 -8 60 C-8.32049316 59.46858398 -8.64098633 58.93716797 -8.97119141 58.38964844 C-17.57149646 44.18256509 -26.3663042 29.92188848 -36.68115234 16.87329102 C-38 15 -38 15 -38 13 C-36.36804688 12.87044922 -36.36804688 12.87044922 -34.703125 12.73828125 C-22.99201475 11.67436391 -8.66262665 0 0 0 Z " fill="#3CBAE6" transform="translate(363,447)" data-index="19" style="opacity: 1;"></path>
<path d="M0 0 C8.85211683 -0.27717 17.38220573 0.80323716 26.125 2 C27.57283721 2.19330443 29.02075354 2.38601717 30.46875 2.578125 C33.98010422 3.04527248 37.49032321 3.52039307 41 4 C40.04108648 6.92508914 39.08807163 9.79449952 37.875 12.625 C35.73079124 20.8955195 37.00463091 28.84921271 39 37 C1.34184945 35.02501099 1.34184945 35.02501099 -16 33 C-16 32.34 -16 31.68 -16 31 C-15.08605469 30.26910156 -14.17210937 29.53820312 -13.23046875 28.78515625 C-5.08005391 22.23849411 -1.89383492 9.84794158 0 0 Z " fill="#47C1DE" transform="translate(424,517)" data-index="20" style="opacity: 1;"></path>
<path d="M0 0 C4.3978016 3.05934024 8.45682941 7.16365882 10.875 12 C11.67890964 19.59101562 10.95492395 26.44181985 6.875 33 C2.01548842 38.40342022 -1.81732795 41.60114148 -9.078125 42.2734375 C-15.37405141 42.46738784 -20.32089741 42.50607781 -25.46875 38.6015625 C-30.02359202 34.19711621 -32.39994431 30.09161612 -32.875 23.6875 C-32.49524736 16.09244712 -28.48674352 10.17145615 -23.0546875 5.046875 C-15.90369375 -0.5542836 -8.88893235 -2.84445835 0 0 Z " fill="#46C0DF" transform="translate(398.125,500)" data-index="21" style="opacity: 1;"></path>
<path d="M0 0 C0.81275391 -0.00128906 1.62550781 -0.00257813 2.46289062 -0.00390625 C3.72456055 0.00189453 3.72456055 0.00189453 5.01171875 0.0078125 C5.84123047 0.00394531 6.67074219 0.00007813 7.52539062 -0.00390625 C12.35587781 0.00371883 16.93644423 0.32294801 21.69921875 1.1328125 C22.69921875 4.1328125 22.69921875 4.1328125 21.87109375 6.0078125 C14.572311 16.91588343 6.1141182 25.42631356 -6.30078125 30.1328125 C-6.99107422 30.40061523 -7.68136719 30.66841797 -8.39257812 30.94433594 C-15.80747978 33.52647355 -22.88833815 33.51301009 -30.67578125 33.3828125 C-31.93261719 33.37765625 -33.18945312 33.3725 -34.484375 33.3671875 C-44.49432358 33.28154088 -44.49432358 33.28154088 -48.30078125 32.1328125 C-44.4006421 20.25905552 -31.99903661 11.63036538 -21.30078125 6.1328125 C-14.4876255 3.08443702 -7.55725894 0.01166887 0 0 Z " fill="#12A2B4" transform="translate(706.30078125,361.8671875)" data-index="22" style="opacity: 1;"></path>

<path d="M0 0 C-0.54549601 12.32820989 -4.15694841 22.44279693 -12 32 C-12.86044922 33.06541016 -12.86044922 33.06541016 -13.73828125 34.15234375 C-20.73308936 41.95597336 -31.64487106 47.44673066 -42 49 C-45.34170264 49.13038435 -48.65843314 49.12325452 -52 49 C-51.47556343 37.46239538 -44.2525511 27.56180893 -36 20 C-26.88245426 12.34184886 -16.72732111 7.03074369 -6 2 C-4.84371094 1.39671875 -4.84371094 1.39671875 -3.6640625 0.78125 C-2 0 -2 0 0 0 Z " fill="#FB7749" transform="translate(714,269)" data-index="23" style="opacity: 1;"></path>
<path d="M0 0 C3.20493059 1.19267455 5.28552542 2.85934219 7.12963867 5.8034668 C8.88187026 10.22557832 8.3265104 15.11901675 8.3125 19.8125 C8.32861328 20.88048828 8.34472656 21.94847656 8.36132812 23.04882812 C8.36509752 29.14393906 8.01026081 33.65167254 5 39 C1.86904522 41.94119995 -0.853961 42.2016104 -5 42.3125 C-10.05907166 42.13986106 -13.30575329 41.41187226 -17.25 38.125 C-21.24573159 33.27304021 -20.2567387 26.60261083 -20.3125 20.625 C-20.35600586 19.08199219 -20.35600586 19.08199219 -20.40039062 17.5078125 C-20.45077338 11.49288692 -20.22283863 7.65917397 -16 3 C-11.48998936 -1.42579883 -5.93740876 -0.72233181 0 0 Z " fill="#3BBAE6" transform="translate(332,267)" data-index="24"></path>
<path d="M0 0 C4.36775158 3.14884416 7.96773395 6.77820184 9.6875 11.9375 C10.42238402 18.82854359 9.85046991 23.35035617 5.6875 28.9375 C1.47141407 33.17560204 -2.12481372 35.07689749 -8.125 35.1875 C-13.49774174 35.10172328 -17.05700134 34.18238455 -20.97265625 30.28515625 C-25.59324071 25.11840342 -26.62976812 21.33843047 -26.51953125 14.43359375 C-26.07292088 9.04898953 -23.65969295 6.07041691 -19.75 2.625 C-13.88181703 -2.18312411 -7.18330863 -2.30408013 0 0 Z " fill="#01496B" transform="translate(412.3125,260.0625)" data-index="25" style="opacity: 1;"></path>
<path d="M0 0 C7.25045905 4.25322204 13.06937919 11.14863488 15.546875 19.1640625 C15.734375 23.1015625 15.734375 23.1015625 15.546875 26.1640625 C11.44550483 25.68556931 7.54833025 25.17032237 3.546875 24.1640625 C-1.05747287 23.27966301 -4.23765611 23.41915133 -8.30859375 25.9140625 C-10.19588293 27.34035392 -12.05375644 28.80669119 -13.875 30.31640625 C-16.51961497 32.21171365 -18.25680541 32.8018896 -21.453125 33.1640625 C-26.33272312 27.97757142 -29.02216905 24.04266608 -29.828125 16.7890625 C-29.20931585 10.80724068 -26.9657007 6.18554322 -22.390625 2.2265625 C-16.19717872 -2.12202744 -7.1201924 -2.4263076 0 0 Z " fill="#47C1DF" transform="translate(503.453125,522.8359375)" data-index="26" style="opacity: 1;"></path>
<path d="M0 0 C9.10106383 0 9.10106383 0 12.3125 1.25 C12.94800781 1.48203125 13.58351563 1.7140625 14.23828125 1.953125 C16.56897886 3.33810717 17.64112327 4.65172963 19 7 C20.19584155 14.59711102 18.82010189 22.743607 17.8125 30.3125 C17.71179199 31.1478125 17.61108398 31.983125 17.50732422 32.84375 C16.65028262 38.64810169 14.94533695 43.54344393 11 48 C6.45201841 50.6879181 2.15948147 50.83043815 -3 50 C-6.55529252 48.67028679 -8.91145467 47.20677498 -11 44 C-11.58974156 39.78756031 -11.28702062 36.05298599 -10 32 C-7.10568544 28.50997413 -4.03961001 26.97492045 0 25 C1.35439668 22.29120665 1.06501451 19.99066732 1 17 C0.34 16.67 -0.32 16.34 -1 16 C-0.67 10.72 -0.34 5.44 0 0 Z " fill="#3DBBE6" transform="translate(644,434)" data-index="27" style="opacity: 1;"></path>
<path d="M0 0 C5.16006014 2.97695778 8.67293857 6.99686192 10.25 12.875 C10.92312148 18.82090639 9.58387582 23.0266501 6.25 27.875 C1.77310972 32.50035858 -1.6192564 34.04910488 -8 34.1875 C-13.44960766 34.13342451 -16.70355283 33.81769212 -20.75 29.875 C-25.20580717 23.97406618 -26.6112489 19.1531597 -25.75 11.875 C-23.87219649 6.46692589 -20.29862574 3.16549522 -15.75 -0.125 C-10.36592666 -1.91969111 -5.40600512 -1.62180154 0 0 Z " fill="#01496B" transform="translate(476.75,261.125)" data-index="28" style="opacity: 1;"></path>
<path d="M0 0 C5.15625 2.15625 5.15625 2.15625 7 4 C7.01465775 6.29247192 6.93655467 8.58584015 6.8125 10.875 C6.75707031 12.13054687 6.70164062 13.38609375 6.64453125 14.6796875 C6 18 6 18 4.17578125 19.84765625 C1.19828318 21.42460765 -1.90141329 22.68023159 -5 24 C-7.280721 25.87424716 -7.280721 25.87424716 -7.375 28.875 C-7.33409046 32.10050908 -7.33409046 32.10050908 -4.97265625 33.83984375 C-3 36 -3 36 -2.72265625 38.69921875 C-3.45437056 45.1332584 -4.58175213 50.97719399 -7 57 C-13.13396375 53.21137533 -17.01894817 46.1461119 -18.65625 39.2265625 C-21.3666822 13.78546025 -21.3666822 13.78546025 -14.30078125 4.8515625 C-9.65098036 0.22916712 -6.46470802 -1.04269484 0 0 Z " fill="#40BCE5" transform="translate(623,429)" data-index="29" style="opacity: 1;"></path>
<path d="M0 0 C13.86 0 27.72 0 42 0 C42 6.27 42 12.54 42 19 C28.14 19 14.28 19 0 19 C0 12.73 0 6.46 0 0 Z " fill="#68D3E5" transform="translate(427,434)" data-index="30" style="opacity: 1;"></path>

<path d="M0 0 C3.15404064 3.15404064 3.03781985 6.71090626 3.20288086 11.04492188 C3.0426719 14.16435007 2.7110037 16.22145458 0.56591797 18.5703125 C-3.32086278 21.55709546 -7.65812082 23.73392827 -12.02099609 25.9375 C-15.41009256 27.75705931 -18.2592306 30.17567986 -21.203125 32.625 C-23.05044135 34.0385986 -24.89115129 35.02955635 -27 36 C-30.35441151 28.62029467 -33.15201047 20.9010981 -35 13 C-34.04480469 12.82984375 -33.08960938 12.6596875 -32.10546875 12.484375 C-20.11588203 10.2370746 -9.95611393 7.37489921 0 0 Z " fill="#F97749" transform="translate(695,243)" data-index="31" style="opacity: 1;"></path>
<path d="M0 0 C13.53 0 27.06 0 41 0 C41 4.62 41 9.24 41 14 C27.47 14 13.94 14 0 14 C0 9.38 0 4.76 0 0 Z " fill="#33AFC9" transform="translate(385,355)" data-index="32" style="opacity: 1;"></path>
<path d="M0 0 C0.75539063 -0.01160156 1.51078125 -0.02320313 2.2890625 -0.03515625 C7.79289395 -0.00678598 12.01296443 1.00393175 17 3.375 C17.495 4.86 17.495 4.86 18 6.375 C16.7934375 6.68953125 15.586875 7.0040625 14.34375 7.328125 C12.72904568 7.75996453 11.11446907 8.1922818 9.5 8.625 C8.70851563 8.82996094 7.91703125 9.03492188 7.1015625 9.24609375 C-2.27420349 11.7821616 -9.44985974 15.0497896 -15 23.375 C-19.14637799 21.78023923 -22.45460534 18.98670864 -25 15.375 C-25.3125 12.375 -25.3125 12.375 -24 9.375 C-17.63733958 1.90341877 -9.47211162 -0.14547612 0 0 Z " fill="#F87748" transform="translate(658,205.625)" data-index="33"></path>
<path d="M0 0 C2.87697694 2.87697694 4.85357673 5.03805155 7.015625 8.328125 C7.80839844 9.52695312 7.80839844 9.52695312 8.6171875 10.75 C9.15601563 11.575 9.69484375 12.4 10.25 13.25 C10.80429687 14.09046875 11.35859375 14.9309375 11.9296875 15.796875 C13.29069425 17.86185075 14.64729288 19.92958185 16 22 C14.87654103 24.38610755 13.94761393 26.05587847 12.125 28 C6.9671827 35.28162442 5.38821398 44.22636404 5 53 C3.35 52.34 1.7 51.68 0 51 C0 34.17 0 17.34 0 0 Z " fill="#3DBBE5" transform="translate(530,433)" data-index="34" style="opacity: 1;"></path>
<path d="M0 0 C-0.41688475 4.86365546 -2.41219465 6.82938132 -6 10 C-13.42919931 16.19360616 -23.70691579 16.52966939 -33 17 C-33.3938376 12.98285653 -33.57758546 10.78016241 -31.12890625 7.47265625 C-26.91491168 4.14249575 -22.75976342 3.00140186 -17.625 1.625 C-16.70460938 1.35300781 -15.78421875 1.08101562 -14.8359375 0.80078125 C-9.45312975 -0.69871519 -5.46097691 -1.27874115 0 0 Z " fill="#F77748" transform="translate(689,225)" data-index="35"></path>
<path d="M0 0 C10.15336134 1.12815126 10.15336134 1.12815126 13.4375 2.9375 C14.39462891 3.44603516 14.39462891 3.44603516 15.37109375 3.96484375 C17 5 17 5 19 7 C19.06987335 10.56354068 18.73995265 13.02992802 16.54296875 15.91015625 C13.37658194 19.15932441 10.13394288 22.04786031 6 24 C5.01 24 4.02 24 3 24 C2.01 16.08 1.02 8.16 0 0 Z " fill="#F87748" transform="translate(708,228)" data-index="36" style="opacity: 1;"></path>
<path d="M0 0 C5 1 5 1 6.78540039 2.67993164 C9.29058558 7.46521303 8.46789167 13.15763858 8.4375 18.4375 C8.45748047 19.66533203 8.47746094 20.89316406 8.49804688 22.15820312 C8.49740234 23.34220703 8.49675781 24.52621094 8.49609375 25.74609375 C8.49794678 26.82560303 8.4997998 27.9051123 8.50170898 29.01733398 C7.87694281 32.73157649 6.67466434 34.38242499 4 37 C2.02 37.495 2.02 37.495 0 38 C0 25.46 0 12.92 0 0 Z " fill="#3DBDE9" transform="translate(504,269)" data-index="37" style="opacity: 1;"></path>
<path d="M0 0 C43.23 0 86.46 0 131 0 C131.33 0.66 131.66 1.32 132 2 C67.155 2.495 67.155 2.495 1 3 C0.34 4.32 -0.32 5.64 -1 7 C-1.33 6.34 -1.66 5.68 -2 5 C-1.34 3.35 -0.68 1.7 0 0 Z " fill="#88CFD7" transform="translate(533,553)" data-index="38" style="opacity: 1;"></path>
<path d="M0 0 C2 1 2 1 3 3.75 C3.33 4.8225 3.66 5.895 4 7 C4.65411685 8.67163195 5.31653318 10.34015202 6 12 C5.34 11.67 4.68 11.34 4 11 C3.98786972 12.45912308 3.98786972 12.45912308 3.97549438 13.94772339 C3.89811721 23.10066004 3.81039959 32.2534465 3.71247292 41.40618706 C3.66245857 46.11206979 3.61612917 50.81792951 3.578125 55.52392578 C3.54133687 60.06275093 3.49499496 64.60138588 3.44193649 69.14004898 C3.42335801 70.87441813 3.40826291 72.60882809 3.39665604 74.3432579 C3.37985235 76.76663577 3.35083252 79.18957473 3.31884766 81.61279297 C3.31668747 82.33496002 3.31452728 83.05712708 3.31230164 83.80117798 C3.22810432 88.77189568 3.22810432 88.77189568 1 91 C-0.2769491 87.16915269 -0.13119309 83.57197145 -0.11352539 79.58129883 C-0.11367142 78.72254654 -0.11381744 77.86379425 -0.1139679 76.97901917 C-0.11327079 74.1383309 -0.10548783 71.29770807 -0.09765625 68.45703125 C-0.09579135 66.48833756 -0.09436779 64.51964341 -0.09336853 62.5509491 C-0.08954901 57.36746949 -0.07972352 52.18401786 -0.06866455 47.00054932 C-0.0584383 41.7119586 -0.0538683 36.42336337 -0.04882812 31.13476562 C-0.03810077 20.75649812 -0.0210311 10.37825138 0 0 Z " fill="#93DBE0" transform="translate(320,480)" data-index="39" style="opacity: 1;"></path>
<path d="M0 0 C16.47238059 -0.04672649 32.94473967 -0.08199202 49.41717052 -0.10362434 C57.0656525 -0.1139357 64.71409329 -0.12799334 72.36254883 -0.15087891 C79.02915691 -0.17081709 85.69573515 -0.18371746 92.36237222 -0.18817699 C95.89210822 -0.19078364 99.42175887 -0.19690748 102.95146751 -0.21146011 C106.89238456 -0.22757624 110.8332182 -0.22797941 114.77416992 -0.22705078 C115.94373734 -0.23424133 117.11330475 -0.24143188 118.3183136 -0.24884033 C119.93151993 -0.24471634 119.93151993 -0.24471634 121.57731628 -0.24050903 C122.50924899 -0.24235262 123.4411817 -0.24419621 124.40135479 -0.24609566 C127.24624649 0.02331992 129.41056796 0.81980052 132 2 C128.86051306 2.92712381 126.0791502 3.11205704 122.8114624 3.08229065 C121.76260864 3.07525116 120.71375488 3.06821167 119.63311768 3.06095886 C118.4880072 3.04801285 117.34289673 3.03506683 116.16308594 3.02172852 C114.95305908 3.01212097 113.74303223 3.00251343 112.49633789 2.99261475 C109.1825747 2.96529515 105.86891489 2.93339677 102.55521679 2.89946485 C99.09057425 2.86506908 95.62588364 2.83652361 92.16119385 2.80735779 C85.60224801 2.75125536 79.04336238 2.68989092 72.48448205 2.62663645 C65.01661023 2.55487175 57.54869027 2.4889724 50.08076048 2.42356598 C34.72044406 2.28890419 19.36020478 2.14687581 4 2 C3.67 2.99 3.34 3.98 3 5 C2.01 3.35 1.02 1.7 0 0 Z " fill="#A6EFF1" transform="translate(365,384)" data-index="40"></path>
<path d="M0 0 C0.99 0.495 0.99 0.495 2 1 C2 32.35 2 63.7 2 96 C8.6 96 15.2 96 22 96 C22 96.66 22 97.32 22 98 C18.52085059 98.02887814 15.04173169 98.04675687 11.5625 98.0625 C10.07266602 98.07506836 10.07266602 98.07506836 8.55273438 98.08789062 C7.60849609 98.09111328 6.66425781 98.09433594 5.69140625 98.09765625 C4.81685791 98.10289307 3.94230957 98.10812988 3.04125977 98.11352539 C1 98 1 98 0 97 C-0.09529612 93.98649762 -0.12551904 90.99595894 -0.11352539 87.98217773 C-0.11367142 87.03593536 -0.11381744 86.08969299 -0.1139679 85.11477661 C-0.11326836 81.97102608 -0.10547409 78.82733399 -0.09765625 75.68359375 C-0.09579221 73.51025932 -0.09436824 71.33692448 -0.09336853 69.16358948 C-0.08954221 63.43098805 -0.07971097 57.69841177 -0.06866455 51.96582031 C-0.05845287 46.12109721 -0.05387143 40.27637007 -0.04882812 34.43164062 C-0.0380888 22.954416 -0.02101102 11.47721009 0 0 Z " fill="#044467" transform="translate(652,748)" data-index="41" style="opacity: 1;"></path>


<path d="M0 0 C0.33 0 0.66 0 1 0 C1 28.38 1 56.76 1 86 C0.67 86 0.34 86 0 86 C-0.03758423 84.16840332 -0.03758423 84.16840332 -0.07592773 82.29980469 C-0.17013579 77.76730955 -0.27032384 73.23496286 -0.37231445 68.70263672 C-0.4156126 66.74140904 -0.45729131 64.7801449 -0.49731445 62.81884766 C-0.55514099 59.99891172 -0.61879984 57.17915839 -0.68359375 54.359375 C-0.70030624 53.48319519 -0.71701874 52.60701538 -0.73423767 51.70428467 C-0.75418289 50.88373596 -0.77412811 50.06318726 -0.79467773 49.21777344 C-0.81799416 48.13855621 -0.81799416 48.13855621 -0.84178162 47.03753662 C-0.94340321 44.97677916 -0.94340321 44.97677916 -1.52455139 42.93951416 C-2 41 -2 41 -1.8125 37.75 C-2.11937682 31.61246367 -5.09821008 26.6821479 -9 22 C-4.33892399 23.66467 -4.17256251 25.24115623 -1 30 C-0.67 20.1 -0.34 10.2 0 0 Z " fill="#BEFBFB" transform="translate(488,240)" data-index="43" style="opacity: 1;"></path>
<path d="M0 0 C0.33 0 0.66 0 1 0 C0.63419196 7.45491562 -0.20919651 14.04931961 -3 21 C-7.51591742 17.86394624 -9.6536612 14.8731652 -12 10 C-11.67 9.34 -11.34 8.68 -11 8 C-9.02 10.97 -7.04 13.94 -5 17 C-2.70053583 13.55080374 -2.19230965 10.8618978 -1.375 6.8125 C-1.11460937 5.54019531 -0.85421875 4.26789063 -0.5859375 2.95703125 C-0.39257812 1.98121094 -0.19921875 1.00539063 0 0 Z " fill="#46CAEE" transform="translate(619,465)" data-index="44" style="opacity: 1;"></path>
<path d="M0 0 C0.66 0 1.32 0 2 0 C3.63722272 3.27444544 3.46333755 5.35121676 3 9 C0.46077429 13.06807889 -2.61500634 16.61500634 -6 20 C-7.98821313 20.39764263 -9.98944339 20.73775349 -12 21 C-10.08493947 19.00514528 -8.1655674 17.129882 -5.98828125 15.421875 C-1.26961096 11.69583665 -1.26961096 11.69583665 1.0625 6.25 C1.16118808 2.98701628 1.16118808 2.98701628 0 0 Z " fill="#094571" transform="translate(725,232)" data-index="45"></path>
<path d="M0 0 C1 3 1 3 1 5 C0.34 5 -0.32 5 -1 5 C-1.66 11.6 -2.32 18.2 -3 25 C-5.87218206 20.69172691 -5.58996649 17.05983028 -5 12 C-2.2570922 2.2570922 -2.2570922 2.2570922 0 0 Z " fill="#1A496D" transform="translate(464,743)" data-index="46"></path>



<path d="M0 0 C0 3 0 3 -1 5 C1.64 5.33 4.28 5.66 7 6 C7 6.33 7 6.66 7 7 C2.71 7 -1.58 7 -6 7 C-6 6.34 -6 5.68 -6 5 C-4.04072937 3.2856382 -2.04119788 1.61594832 0 0 Z " fill="#51D0ED" transform="translate(414,543)" data-index="48"></path>
<path d="M0 0 C0.99 0.33 1.98 0.66 3 1 C1.66272409 3.67455183 0.26711677 3.98881385 -2.4375 5.1875 C-3.24058594 5.55230469 -4.04367187 5.91710937 -4.87109375 6.29296875 C-7 7 -7 7 -9 6 C-7.57140593 4.96674014 -6.13177617 3.94872366 -4.6875 2.9375 C-3.88699219 2.36902344 -3.08648437 1.80054688 -2.26171875 1.21484375 C-1.51535156 0.81394531 -0.76898438 0.41304687 0 0 Z " fill="#063B61" transform="translate(348,732)" data-index="49" style="opacity: 1;"></path>

<path d="M0 0 C0.66 0.33 1.32 0.66 2 1 C-0.98418329 4.32851213 -3.84562769 6.3205729 -8 8 C-8.99 7.67 -9.98 7.34 -11 7 C-9.21475351 5.80286983 -7.4215972 4.61752721 -5.625 3.4375 C-4.62726562 2.77621094 -3.62953125 2.11492187 -2.6015625 1.43359375 C-1.74304688 0.96050781 -0.88453125 0.48742187 0 0 Z " fill="#044372" transform="translate(695,307)" data-index="50"></path>
<path d="M0 0 C1 3 1 3 1 5 C0.34 5 -0.32 5 -1 5 C-1.33 6.98 -1.66 8.96 -2 11 C-2.66 11 -3.32 11 -4 11 C-3.48964169 6.6109185 -2.47785723 3.66291938 0 0 Z " fill="#104066" transform="translate(464,743)" data-index="51" style="opacity: 1;"></path>
<path d="M0 0 C0 3 0 3 -2.25 5.5625 C-4.55902983 7.60914008 -6.26579189 8.73221547 -9 10 C-8.06409496 8.8944811 -7.12620142 7.79064547 -6.1875 6.6875 C-5.66542969 6.07261719 -5.14335937 5.45773437 -4.60546875 4.82421875 C-3.12827531 3.14575321 -1.59960869 1.56117966 0 0 Z " fill="#013058" transform="translate(337,739)" data-index="52" style="opacity: 1;"></path>

<path d="M0 0 C0 4.31618166 -2.13270348 5.92789659 -5 9 C-5.66 9 -6.32 9 -7 9 C-5.44499019 5.18315774 -2.96404505 2.80804268 0 0 Z " fill="#EA7746" transform="translate(678,289)" data-index="54"></path>
<path d="M0 0 C0 3.10551666 -0.5393715 4.35261084 -2 7 C-2.66 7 -3.32 7 -4 7 C-4.33 7.99 -4.66 8.98 -5 10 C-5.66 9.67 -6.32 9.34 -7 9 C-4.69 6.03 -2.38 3.06 0 0 Z " fill="#08375E" transform="translate(463,818)" data-index="55"></path>
<path d="M0 0 C2.61724095 2.36797991 4.32861729 4.89600354 6 8 C6 8.66 6 9.32 6 10 C4.68 9.67 3.36 9.34 2 9 C1.855625 8.2575 1.71125 7.515 1.5625 6.75 C1.09812508 4.47972261 0.58136431 2.24240521 0 0 Z " fill="#42C3E7" transform="translate(376,475)" data-index="56"></path>



<path d="M0 0 C0.33 0.99 0.66 1.98 1 3 C-1.31 4.98 -3.62 6.96 -6 9 C-4.25618453 5.51236907 -2.47193291 2.96631949 0 0 Z " fill="#003E62" transform="translate(726,370)" data-index="58"></path>

</svg>